<svg width="16" height="16" viewBox="0 0 16 16" fill="none" xmlns="http://www.w3.org/2000/svg">
<path d="M1.00486 7.72797C0.969289 7.19851 1.19618 6.76433 1.56588 6.39782C2.13283 5.83608 2.71325 5.28684 3.28937 4.73343C3.44943 4.57933 3.63751 4.4851 3.87248 4.50384C4.26805 4.53508 4.54183 4.96198 4.39416 5.31599C4.35267 5.41595 4.29231 5.50081 4.21255 5.57734C3.62997 6.13647 3.04793 6.69613 2.46966 7.25943C2.29127 7.43279 2.23576 7.64728 2.31553 7.87999C2.39421 8.10854 2.56505 8.25327 2.81242 8.29596C3.02745 8.33292 3.21769 8.26681 3.37182 8.12051C3.73236 7.77795 4.09021 7.43227 4.44806 7.08762C5.68759 5.89439 6.92227 4.69647 8.17042 3.51104C8.51479 3.18409 8.94054 3.00813 9.44067 3.00032C9.84971 2.99407 10.2226 3.07893 10.5595 3.29967C11.0095 3.59486 11.2854 4.00197 11.3803 4.51842C11.4579 4.94271 11.3738 5.33994 11.1609 5.71634C11.0203 5.96519 10.8144 6.16042 10.6101 6.35721C9.12755 7.7868 7.64335 9.21431 6.15861 10.6413C6.05675 10.7392 5.95435 10.8313 5.91124 10.9719C5.83417 11.2233 5.92471 11.4961 6.14998 11.6549C6.3634 11.8054 6.66628 11.8142 6.87861 11.656C7.02843 11.5446 7.16317 11.4128 7.2979 11.2837C8.79072 9.84894 10.2809 8.41153 11.7742 6.97778C12.498 6.28276 13.6966 6.28745 14.4257 6.97621C14.8445 7.37136 15.0261 7.85292 14.997 8.40789C14.9781 8.76399 14.8569 9.09457 14.6257 9.37622C14.4904 9.54126 14.333 9.69015 14.1784 9.83957C13.6723 10.3289 13.163 10.8152 12.6554 11.303C12.5584 11.3962 12.449 11.468 12.3121 11.4951C12.0437 11.5487 11.7796 11.4347 11.6411 11.2062C11.5037 10.9792 11.5301 10.6975 11.7139 10.5028C11.8195 10.3909 11.9321 10.2862 12.0431 10.179C12.3509 9.88278 12.6602 9.58863 12.9663 9.29136C13.162 9.10134 13.356 8.90976 13.5457 8.71453C13.7456 8.50889 13.7752 8.22307 13.6292 7.97787C13.5052 7.77014 13.211 7.64624 12.9625 7.70038C12.8257 7.73006 12.7098 7.79826 12.6112 7.89301C11.1776 9.2721 9.74462 10.6517 8.31162 12.0308C8.15964 12.1771 8.00982 12.3265 7.85461 12.4697C7.56359 12.7394 7.22299 12.9237 6.82256 12.9877C6.69376 13.0085 6.55849 12.9882 6.42645 12.9971C5.72908 13.0439 4.97297 12.5243 4.71914 11.8679C4.43782 11.1406 4.56931 10.4747 5.12495 9.9161C5.80992 9.22733 6.5213 8.56251 7.22137 7.8878C8.1009 7.04077 8.98042 6.19374 9.85995 5.34671C9.98444 5.22697 10.0825 5.09421 10.1084 4.92085C10.1467 4.66419 10.0152 4.41794 9.77318 4.29664C9.53983 4.1795 9.2515 4.21178 9.0618 4.38931C8.75623 4.6746 8.45605 4.96614 8.15479 5.2556C6.88939 6.47278 5.62238 7.68841 4.36129 8.90976C4.07943 9.18308 3.76093 9.38716 3.37721 9.49076C2.73265 9.66464 2.15924 9.51471 1.65157 9.11227C1.29049 8.82646 1.08246 8.45162 1.00755 8.01014C0.991924 7.918 1.0054 7.82116 1.0054 7.72641L1.00486 7.72797Z" fill="#000E59"/>
</svg>
