<svg width="32" height="32" viewBox="0 0 32 32" fill="none" xmlns="http://www.w3.org/2000/svg">
<g id="icon/twitter">
<path id="Vector" d="M23.9525 11.2321C23.9647 11.4165 23.9647 11.601 23.9647 11.7871C23.9647 17.4588 19.8371 24 12.2897 24V23.9966C10.0601 24 7.8769 23.3319 6 22.0723C6.32419 22.1131 6.65001 22.1335 6.97664 22.1344C8.82429 22.1361 10.6191 21.4876 12.0727 20.2934C10.3169 20.2585 8.77717 19.061 8.23928 17.3126C8.85436 17.4367 9.48812 17.4112 10.0918 17.2387C8.17753 16.8341 6.80033 15.0747 6.80033 13.0314V12.977C7.37071 13.3094 8.00934 13.4938 8.6626 13.5142C6.85964 12.2537 6.30388 9.7447 7.39265 7.78302C9.47593 10.4646 12.5497 12.0948 15.8493 12.2673C15.5186 10.7765 15.9703 9.21433 17.0364 8.16635C18.689 6.54125 21.2882 6.62455 22.8418 8.35249C23.7607 8.16295 24.6415 7.81022 25.4475 7.31045C25.1412 8.30404 24.5001 9.14804 23.6437 9.68435C24.457 9.58406 25.2517 9.35627 26 9.00865C25.4491 9.87219 24.7552 10.6244 23.9525 11.2321Z" fill="#0166FF"/>
</g>
</svg>
