<svg width="32" height="32" viewBox="0 0 32 32" fill="none" xmlns="http://www.w3.org/2000/svg">
<g id="icon/medium" clip-path="url(#clip0_113_236)">
<g id="Page-1">
<g id="Monogram">
<path id="Shape" d="M7.63636 10.7023C7.66307 10.4384 7.56244 10.1775 7.36539 9.99993L5.35816 7.5819V7.2207H11.5906L16.408 17.7858L20.6432 7.2207H26.5846V7.5819L24.8684 9.22737C24.7205 9.34014 24.6471 9.52551 24.6777 9.70897V21.7991C24.6471 21.9826 24.7205 22.1679 24.8684 22.2807L26.5445 23.9262V24.2874H18.1141V23.9262L19.8504 22.2406C20.021 22.07 20.021 22.0198 20.021 21.759V11.9865L15.1936 24.2472H14.5412L8.92099 11.9865V20.2038C8.87413 20.5493 8.98887 20.8971 9.23211 21.1469L11.4902 23.886V24.2472H5.08718V23.886L7.34531 21.1469C7.58678 20.8967 7.69483 20.5466 7.63636 20.2038V10.7023Z" fill="#0166FF"/>
</g>
</g>
</g>
<defs>
<clipPath id="clip0_113_236">
<rect width="32" height="32" fill="white"/>
</clipPath>
</defs>
</svg>
