<svg width="78" height="22" viewBox="0 0 78 22" fill="none" xmlns="http://www.w3.org/2000/svg">
<g id="logo">
<path id="Vector" d="M78 15.5314C77.9828 15.5634 77.9574 15.5944 77.9494 15.6299C77.8401 16.1235 77.3488 16.5255 76.7148 16.5186C76.0452 16.5106 75.5298 16.1395 75.4032 15.5474C75.3664 15.3733 75.3629 15.1923 75.3399 14.9827C75.2835 15.0389 75.2341 15.0778 75.1961 15.1259C74.4989 16.0032 73.5773 16.506 72.4785 16.6778C71.5741 16.8199 70.6986 16.7065 69.9173 16.1957C69.0659 15.639 68.6034 14.8396 68.4929 13.8374C68.3951 12.9452 68.5435 12.1079 69.0659 11.3566C69.5031 10.7267 70.1221 10.3338 70.8251 10.0635C71.6443 9.74853 72.5049 9.62254 73.3771 9.58246C73.8787 9.55955 74.3815 9.55841 74.8843 9.54695C74.9315 9.54695 74.9798 9.54008 75.027 9.53664C75.1409 9.52748 75.2007 9.47251 75.1938 9.35224C75.1788 9.10141 75.1869 8.84829 75.1489 8.6009C75.0649 8.03739 74.6875 7.68348 74.0858 7.55635C73.3966 7.41089 72.7051 7.43265 72.0171 7.54031C71.367 7.64225 70.7227 7.78427 70.0749 7.89995C69.4836 8.00532 69.0199 7.5449 69.1108 6.95161C69.2086 6.30449 69.6216 5.89446 70.2705 5.76389C71.1012 5.59667 71.9377 5.47297 72.7845 5.4432C73.7821 5.40884 74.7738 5.46954 75.7369 5.76389C76.9599 6.13842 77.6307 6.98712 77.8504 8.21263C77.8838 8.39818 77.8907 8.58945 77.9114 8.77728C77.9172 8.82768 77.9241 8.87807 77.9517 8.92732C77.9678 8.84028 77.9839 8.75323 78 8.66618C78 10.9546 78 13.243 78 15.5314ZM74.3815 11.2833C74.3815 11.2833 74.3815 11.2753 74.3815 11.2707C74.095 11.2856 73.8085 11.2947 73.5232 11.3165C73.0296 11.3532 72.5441 11.4287 72.0953 11.6498C71.6029 11.8926 71.2163 12.2282 71.1484 12.8112C71.13 12.9658 71.1323 13.1239 71.1392 13.2796C71.1714 14.0115 71.711 14.567 72.4405 14.63C72.895 14.6701 73.3276 14.5899 73.7349 14.3906C74.3424 14.0928 74.7876 13.6484 75.0178 13.0024C75.1869 12.5271 75.2088 12.0381 75.1938 11.5433C75.1869 11.336 75.1432 11.2879 74.9292 11.2844C74.7474 11.281 74.5656 11.2844 74.3838 11.2844L74.3815 11.2833Z" fill="#FFFCFF"/>
<path id="Vector_2" d="M0.0103716 10.4015C-0.0655654 9.23673 0.418821 8.28152 1.20811 7.4752C2.4185 6.23937 3.65765 5.03104 4.8876 3.81354C5.22932 3.47452 5.63086 3.26721 6.13251 3.30845C6.97702 3.37717 7.5615 4.31635 7.24625 5.09518C7.15766 5.31508 7.02879 5.50177 6.85851 5.67014C5.61475 6.90024 4.37215 8.13148 3.1376 9.37074C2.75676 9.75213 2.63825 10.224 2.80854 10.736C2.97652 11.2388 3.34125 11.5572 3.86935 11.6511C4.32843 11.7324 4.73457 11.587 5.06364 11.2651C5.83336 10.5115 6.59733 9.75099 7.36131 8.99277C10.0076 6.36765 12.6435 3.73222 15.3082 1.12428C16.0434 0.405008 16.9524 0.017883 18.0201 0.000702918C18.8934 -0.0130412 19.6896 0.173649 20.4087 0.659274C21.3694 1.30868 21.9585 2.20434 22.161 3.34052C22.3266 4.27397 22.1472 5.14786 21.6927 5.97595C21.3924 6.52342 20.9529 6.95292 20.5168 7.38586C17.3516 10.531 14.183 13.6715 11.0132 16.8109C10.7957 17.0262 10.5771 17.2289 10.4851 17.5382C10.3205 18.0914 10.5138 18.6915 10.9948 19.0408C11.4504 19.3719 12.097 19.3913 12.5503 19.0431C12.8702 18.798 13.1578 18.5083 13.4455 18.2242C16.6325 15.0677 19.8138 11.9054 23.002 8.75111C24.5472 7.22208 27.1061 7.23238 28.6628 8.74767C29.5568 9.61698 29.9445 10.6764 29.8824 11.8974C29.8421 12.6808 29.5832 13.4081 29.0896 14.0277C28.8009 14.3908 28.4649 14.7183 28.1347 15.047C27.0543 16.1237 25.967 17.1934 24.8832 18.2666C24.6761 18.4716 24.4425 18.6297 24.1503 18.6892C23.5773 18.8072 23.0135 18.5564 22.7178 18.0536C22.4244 17.5542 22.4808 16.9346 22.8732 16.5062C23.0987 16.26 23.3391 16.0297 23.5762 15.7938C24.2331 15.1421 24.8936 14.495 25.5471 13.841C25.9647 13.423 26.3789 13.0015 26.7839 12.572C27.2108 12.1196 27.2741 11.4908 26.9623 10.9513C26.6976 10.4943 26.0694 10.2217 25.539 10.3408C25.2468 10.4061 24.9994 10.5562 24.7889 10.7646C21.7284 13.7986 18.669 16.8338 15.6097 19.8678C15.2852 20.1896 14.9654 20.5183 14.634 20.8333C14.0127 21.4266 13.2855 21.832 12.4307 21.9729C12.1557 22.0187 11.8669 21.9741 11.585 21.9935C10.0962 22.0966 8.48195 20.9536 7.94004 19.5093C7.33944 17.9093 7.62018 16.4444 8.80641 15.2154C10.2688 13.7001 11.7875 12.2375 13.2821 10.7532C15.1598 8.88969 17.0375 7.02622 18.9152 5.16275C19.181 4.89933 19.3904 4.60726 19.4456 4.22587C19.5273 3.66121 19.2466 3.11947 18.73 2.8526C18.2318 2.5949 17.6163 2.66591 17.2113 3.05647C16.5589 3.68412 15.918 4.32551 15.2749 4.96232C12.5733 7.64013 9.86838 10.3145 7.17606 13.0015C6.57432 13.6028 5.89434 14.0517 5.07514 14.2797C3.69907 14.6622 2.47487 14.3324 1.39104 13.447C0.620169 12.8182 0.176052 11.9936 0.0161244 11.0223C-0.0172418 10.8196 0.0115222 10.6066 0.0115222 10.3981L0.0103716 10.4015Z" fill="#FFFCFF"/>
<path id="Vector_3" d="M63.6457 15.0687C63.5858 15.1203 63.5398 15.1569 63.4972 15.1981C62.6757 15.9747 61.7001 16.3973 60.5633 16.4076C59.239 16.4191 58.177 15.8876 57.3854 14.8282C56.8194 14.07 56.5191 13.2087 56.3799 12.2867C56.228 11.2799 56.2337 10.2709 56.4052 9.26756C56.6031 8.10733 57.046 7.06736 57.9768 6.28051C58.5153 5.82581 59.1447 5.583 59.8327 5.4845C60.5288 5.38486 61.218 5.43181 61.8853 5.66203C62.586 5.90369 63.144 6.35152 63.6284 6.89671C63.6629 6.93565 63.6963 6.97573 63.7319 7.01467C63.7377 7.0204 63.7492 7.02155 63.7768 7.03071C63.786 6.96657 63.8033 6.90472 63.8033 6.84287C63.801 6.2221 64.3107 5.72159 64.9078 5.65974C65.4371 5.60476 65.9088 5.70555 66.2195 6.1717C66.3207 6.32403 66.3794 6.51416 66.4151 6.69627C66.4519 6.88067 66.4427 7.07423 66.4438 7.26436C66.4438 9.86085 66.4438 12.4573 66.4438 15.0538C66.4438 15.8327 66.4335 16.6126 66.277 17.3777C65.9031 19.2091 64.8837 20.4759 63.0313 21.0314C62.3006 21.2501 61.5574 21.336 60.8084 21.3223C60.0605 21.3085 59.3103 21.2295 58.5671 21.1299C57.8652 21.0359 57.3463 20.2285 57.4925 19.5378C57.5695 19.1725 58.0608 18.8644 58.4486 18.9365C59.1999 19.0763 59.9512 19.2217 60.7221 19.2068C61.1593 19.1977 61.593 19.1736 62.005 19.011C62.8587 18.6731 63.3569 18.0615 63.5375 17.1555C63.6698 16.4912 63.6675 15.8281 63.6675 15.1592C63.6675 15.1374 63.656 15.1168 63.6433 15.0687H63.6457ZM63.6744 10.9306C63.6744 10.5606 63.6687 10.1896 63.6744 9.81961C63.6905 8.94686 63.2637 8.31578 62.5584 7.8565C62.1143 7.56673 61.6126 7.48541 61.0764 7.54611C60.2388 7.64232 59.6705 8.07755 59.3552 8.83806C59.155 9.32025 59.0929 9.8345 59.0572 10.3522C59.01 11.0383 59.0434 11.7186 59.1884 12.3898C59.3184 12.9956 59.598 13.5225 60.1008 13.9096C60.7462 14.4078 61.7967 14.48 62.5802 13.968C63.2694 13.5179 63.6744 12.9086 63.6733 12.0691C63.6733 11.6888 63.6733 11.3097 63.6733 10.9295L63.6744 10.9306Z" fill="#FFFCFF"/>
<path id="Vector_4" d="M50.6408 11.8793C49.6927 11.8793 48.7458 11.8793 47.7977 11.8793C47.555 11.8793 47.5504 11.8873 47.5745 12.1266C47.6332 12.7176 47.7989 13.2674 48.1705 13.7473C48.4996 14.1711 48.9276 14.4334 49.4453 14.5639C50.4555 14.8205 51.4634 14.7758 52.4713 14.5548C52.6715 14.5112 52.8694 14.4471 53.0719 14.4208C53.5989 14.3509 54.0257 14.793 53.9486 15.3164C53.8554 15.9475 53.4999 16.3358 52.8717 16.4767C51.7373 16.7321 50.5902 16.7985 49.4361 16.6645C48.5088 16.5568 47.6275 16.2945 46.8497 15.7654C45.8073 15.0576 45.1894 14.0634 44.9375 12.8459C44.6326 11.3742 44.6728 9.91156 45.1492 8.47759C45.4771 7.48916 46.0777 6.69544 46.9832 6.15026C47.5458 5.81124 48.1602 5.61195 48.8114 5.51918C49.6674 5.39662 50.5188 5.40922 51.3645 5.59362C51.8121 5.69098 52.2309 5.86278 52.622 6.09643C53.4597 6.59809 53.9843 7.34027 54.2996 8.2428C54.5826 9.0537 54.6919 9.89323 54.7 10.7465C54.7057 11.3409 54.2041 11.83 53.554 11.8518C52.736 11.8781 51.9179 11.8735 51.0999 11.8815C50.9468 11.8827 50.7938 11.8815 50.6408 11.8815V11.8793ZM49.8124 10.0456C49.8124 10.0456 49.8124 10.0421 49.8124 10.0398C50.4958 10.0398 51.1792 10.0375 51.8638 10.0421C51.9973 10.0421 52.0502 9.99059 52.0341 9.8646C51.9881 9.5084 51.972 9.14418 51.8868 8.79714C51.7453 8.2176 51.4255 7.76519 50.8306 7.54299C50.1817 7.30133 49.5397 7.32538 48.9034 7.57735C48.5537 7.71594 48.2545 7.93584 48.0555 8.25196C47.7713 8.70093 47.6551 9.2129 47.586 9.73174C47.5458 10.0284 47.5699 10.0456 47.8771 10.0467C48.5226 10.049 49.1681 10.0467 49.8135 10.0467L49.8124 10.0456Z" fill="#FFFCFF"/>
<path id="Vector_5" d="M38.8441 14.9258C38.8637 14.8651 38.8879 14.8055 38.904 14.7437C39.5241 12.358 40.1431 9.97221 40.7633 7.58647C40.8415 7.2841 40.9175 6.97943 41.0118 6.68165C41.1913 6.11814 41.77 5.67833 42.3637 5.65084C42.5881 5.64053 42.8136 5.6474 43.0379 5.64855C43.5085 5.65313 44.0113 6.15593 43.8146 6.7412C43.3958 7.9965 42.9931 9.25637 42.5835 10.5151C42.0496 12.1564 41.518 13.7988 40.9784 15.4389C40.7759 16.0551 40.3226 16.417 39.6875 16.4812C39.1283 16.5373 38.5565 16.5465 37.9962 16.4995C37.2552 16.4365 36.7639 16.0104 36.5338 15.3003C36.1933 14.2489 35.8492 13.1998 35.5075 12.1495C35.1175 10.9503 34.7286 9.75001 34.3385 8.55084C34.1568 7.99192 33.9773 7.43184 33.7886 6.87521C33.6632 6.50412 33.6609 6.15479 33.983 5.88678C34.1153 5.77683 34.296 5.68176 34.464 5.66344C34.7712 5.63022 35.0899 5.62221 35.3936 5.66917C36.0724 5.77339 36.5166 6.17884 36.6926 6.83741C36.9975 7.97703 37.2851 9.12237 37.5808 10.2643C37.9651 11.7509 38.3506 13.2376 38.7371 14.7231C38.7544 14.7907 38.7797 14.8571 38.8016 14.9247C38.8142 14.9258 38.828 14.927 38.8407 14.9281L38.8441 14.9258Z" fill="#FFFCFF"/>
</g>
</svg>
