<svg width="79" height="22" viewBox="0 0 79 22" fill="none" xmlns="http://www.w3.org/2000/svg">
<g id="logo">
<path id="Vector" d="M78.9999 15.5315C78.9825 15.5636 78.9568 15.5945 78.9487 15.63C78.838 16.1236 78.3404 16.5256 77.6983 16.5188C77.0201 16.5107 76.498 16.1397 76.3698 15.5475C76.3325 15.3734 76.3291 15.1925 76.3057 14.9829C76.2486 15.039 76.1985 15.0779 76.1601 15.126C75.4539 16.0034 74.5205 16.5062 73.4076 16.678C72.4917 16.82 71.6049 16.7066 70.8136 16.1958C69.9513 15.6391 69.4828 14.8397 69.371 13.8375C69.2719 12.9453 69.4222 12.1081 69.9513 11.3567C70.3941 10.7268 71.0211 10.3339 71.7331 10.0636C72.5628 9.74865 73.4344 9.62267 74.3177 9.58258C74.8258 9.55967 75.335 9.55853 75.8443 9.54707C75.8921 9.54707 75.941 9.5402 75.9888 9.53677C76.1041 9.5276 76.1647 9.47263 76.1577 9.35237C76.1426 9.10154 76.1508 8.84842 76.1123 8.60102C76.0272 8.03751 75.645 7.6836 75.0356 7.55647C74.3375 7.41101 73.6372 7.43277 72.9403 7.54044C72.2819 7.64237 71.6293 7.78439 70.9733 7.90007C70.3743 8.00545 69.9047 7.54502 69.9967 6.95173C70.0958 6.30461 70.5141 5.89458 71.1714 5.76401C72.0127 5.59679 72.8599 5.4731 73.7176 5.44332C74.7279 5.40896 75.7324 5.46966 76.7078 5.76401C77.9465 6.13854 78.6259 6.98724 78.8485 8.21275C78.8823 8.3983 78.8892 8.58957 78.9102 8.77741C78.916 8.8278 78.923 8.8782 78.951 8.92744C78.9673 8.8404 78.9836 8.75335 78.9999 8.66631C78.9999 10.9547 78.9999 13.2431 78.9999 15.5315ZM75.335 11.2834C75.335 11.2834 75.335 11.2754 75.335 11.2708C75.0449 11.2857 74.7547 11.2949 74.4657 11.3166C73.9658 11.3533 73.474 11.4289 73.0196 11.6499C72.5208 11.8927 72.1293 12.2283 72.0605 12.8113C72.0419 12.9659 72.0442 13.124 72.0512 13.2797C72.0838 14.0116 72.6303 14.5671 73.3692 14.6301C73.8295 14.6702 74.2676 14.59 74.6801 14.3907C75.2954 14.0929 75.7464 13.6485 75.9795 13.0026C76.1508 12.5273 76.1729 12.0382 76.1577 11.5434C76.1508 11.3361 76.1065 11.288 75.8897 11.2846C75.7056 11.2811 75.5215 11.2846 75.3374 11.2846L75.335 11.2834Z" fill="#000E59"/>
<path id="Vector_2" d="M0.0105046 10.4015C-0.066406 9.23673 0.42419 8.28152 1.22359 7.4752C2.4495 6.23937 3.70454 5.03104 4.95026 3.81354C5.29636 3.47452 5.70305 3.26721 6.21113 3.30845C7.06647 3.37717 7.65845 4.31635 7.33915 5.09518C7.24942 5.31508 7.11891 5.50177 6.94644 5.67014C5.68674 6.90024 4.4282 8.13148 3.17782 9.37074C2.7921 9.75213 2.67208 10.224 2.84454 10.736C3.01468 11.2388 3.38408 11.5572 3.91896 11.6511C4.38392 11.7324 4.79527 11.587 5.12855 11.2651C5.90815 10.5115 6.68191 9.75099 7.45568 8.99277C10.1359 6.36765 12.8056 3.73222 15.5045 1.12428C16.2491 0.405008 17.1697 0.017883 18.2511 0.000702918C19.1356 -0.0130412 19.942 0.173649 20.6703 0.659274C21.6433 1.30868 22.24 2.20434 22.4451 3.34052C22.6129 4.27397 22.4311 5.14786 21.9708 5.97595C21.6667 6.52342 21.2215 6.95292 20.7799 7.38586C17.5741 10.531 14.3648 13.6715 11.1544 16.8109C10.9341 17.0262 10.7127 17.2289 10.6195 17.5382C10.4529 18.0914 10.6486 18.6915 11.1357 19.0408C11.5972 19.3719 12.2521 19.3913 12.7112 19.0431C13.0352 18.798 13.3265 18.5083 13.6178 18.2242C16.8458 15.0677 20.0679 11.9054 23.2969 8.75111C24.8619 7.22208 27.4536 7.23238 29.0303 8.74767C29.9357 9.61698 30.3284 10.6764 30.2655 11.8974C30.2247 12.6808 29.9625 13.4081 29.4626 14.0277C29.1701 14.3908 28.8298 14.7183 28.4954 15.047C27.4012 16.1237 26.2999 17.1934 25.2022 18.2666C24.9925 18.4716 24.7559 18.6297 24.4599 18.6892C23.8796 18.8072 23.3086 18.5564 23.0091 18.0536C22.7119 17.5542 22.769 16.9346 23.1664 16.5062C23.3948 16.26 23.6384 16.0297 23.8784 15.7938C24.5438 15.1421 25.2127 14.495 25.8746 13.841C26.2976 13.423 26.7171 13.0015 27.1273 12.572C27.5596 12.1196 27.6237 11.4908 27.3079 10.9513C27.0399 10.4943 26.4036 10.2217 25.8664 10.3408C25.5704 10.4061 25.3199 10.5562 25.1067 10.7646C22.0069 13.7986 18.9084 16.8338 15.8098 19.8678C15.4812 20.1896 15.1572 20.5183 14.8216 20.8333C14.1923 21.4266 13.4559 21.832 12.59 21.9729C12.3115 22.0187 12.019 21.9741 11.7335 21.9935C10.2256 22.0966 8.59069 20.9536 8.04183 19.5093C7.43354 17.9093 7.71788 16.4444 8.91931 15.2154C10.4004 13.7001 11.9386 12.2375 13.4524 10.7532C15.3542 8.88969 17.256 7.02622 19.1577 5.16275C19.4269 4.89933 19.639 4.60726 19.6949 4.22587C19.7777 3.66121 19.4933 3.11947 18.9701 2.8526C18.4655 2.5949 17.8421 2.66591 17.4319 3.05647C16.7712 3.68412 16.1221 4.32551 15.4707 4.96232C12.7345 7.64013 9.99489 10.3145 7.26807 13.0015C6.65861 13.6028 5.96991 14.0517 5.14021 14.2797C3.74649 14.6622 2.5066 14.3324 1.40888 13.447C0.62812 12.8182 0.178309 11.9936 0.0163312 11.0223C-0.0174629 10.8196 0.0116699 10.6066 0.0116699 10.3981L0.0105046 10.4015Z" fill="#000E59"/>
<path id="Vector_3" d="M64.4615 15.0688C64.4009 15.1204 64.3543 15.157 64.3112 15.1983C63.4792 15.9748 62.491 16.3974 61.3396 16.4077C59.9984 16.4192 58.9228 15.8878 58.1211 14.8283C57.5477 14.0701 57.2436 13.2088 57.1026 12.2868C56.9487 11.28 56.9546 10.271 57.1282 9.26768C57.3286 8.10745 57.7773 7.06748 58.72 6.28063C59.2654 5.82593 59.9028 5.58312 60.5997 5.48462C61.3047 5.38498 62.0027 5.43194 62.6786 5.66215C63.3883 5.90382 63.9534 6.35164 64.444 6.89683C64.479 6.93577 64.5128 6.97586 64.5489 7.0148C64.5547 7.02052 64.5664 7.02167 64.5944 7.03083C64.6037 6.96669 64.6212 6.90484 64.6212 6.843C64.6188 6.22222 65.1351 5.72171 65.7399 5.65986C66.2759 5.60488 66.7537 5.70567 67.0683 6.17183C67.1709 6.32416 67.2303 6.51428 67.2664 6.69639C67.3037 6.88079 67.2944 7.07436 67.2955 7.26448C67.2955 9.86097 67.2955 12.4575 67.2955 15.0539C67.2955 15.8328 67.2851 16.6128 67.1266 17.3778C66.7478 19.2092 65.7154 20.476 63.8392 21.0315C63.0993 21.2502 62.3465 21.3361 61.5879 21.3224C60.8304 21.3086 60.0706 21.2296 59.3178 21.13C58.607 21.0361 58.0814 20.2286 58.2294 19.538C58.3075 19.1726 58.8051 18.8645 59.1978 18.9366C59.9587 19.0764 60.7197 19.2218 61.5005 19.2069C61.9433 19.1978 62.3826 19.1737 62.7998 19.0111C63.6644 18.6732 64.169 18.0616 64.352 17.1556C64.486 16.4913 64.4837 15.8282 64.4837 15.1593C64.4837 15.1376 64.472 15.1169 64.4592 15.0688H64.4615ZM64.4906 10.9307C64.4906 10.5608 64.4848 10.1897 64.4906 9.81974C64.507 8.94699 64.0746 8.3159 63.3603 7.85662C62.9105 7.56685 62.4024 7.48553 61.8594 7.54624C61.011 7.64244 60.4354 8.07767 60.1161 8.83818C59.9133 9.32037 59.8504 9.83463 59.8142 10.3523C59.7665 11.0384 59.8003 11.7187 59.9471 12.3899C60.0788 12.9958 60.3619 13.5226 60.8712 13.9097C61.5249 14.408 62.5889 14.4801 63.3824 13.9682C64.0805 13.518 64.4906 12.9087 64.4895 12.0692C64.4895 11.6889 64.4895 11.3098 64.4895 10.9296L64.4906 10.9307Z" fill="#000E59"/>
<path id="Vector_4" d="M51.29 11.879C50.3298 11.879 49.3707 11.879 48.4105 11.879C48.1646 11.879 48.16 11.887 48.1845 12.1264C48.2439 12.7174 48.4117 13.2672 48.7881 13.7471C49.1214 14.1708 49.5549 14.4331 50.0792 14.5637C51.1024 14.8202 52.1232 14.7756 53.144 14.5545C53.3468 14.511 53.5472 14.4469 53.7523 14.4205C54.286 14.3507 54.7184 14.7928 54.6403 15.3162C54.5459 15.9473 54.1858 16.3355 53.5495 16.4764C52.4006 16.7318 51.2387 16.7982 50.0699 16.6642C49.1307 16.5566 48.2381 16.2943 47.4503 15.7652C46.3945 15.0573 45.7688 14.0632 45.5136 12.8457C45.2048 11.3739 45.2455 9.91131 45.728 8.47735C46.0601 7.48892 46.6684 6.6952 47.5855 6.15001C48.1553 5.81099 48.7776 5.6117 49.4372 5.51893C50.3042 5.39638 51.1665 5.40898 52.023 5.59338C52.4763 5.69073 52.9005 5.86253 53.2967 6.09618C54.145 6.59784 54.6764 7.34002 54.9957 8.24255C55.2824 9.05345 55.3931 9.89299 55.4012 10.7463C55.4071 11.3407 54.899 11.8298 54.2406 11.8515C53.412 11.8779 52.5835 11.8733 51.755 11.8813C51.6 11.8824 51.445 11.8813 51.29 11.8813V11.879ZM50.451 10.0453C50.451 10.0453 50.451 10.0419 50.451 10.0396C51.1432 10.0396 51.8354 10.0373 52.5287 10.0419C52.6639 10.0419 52.7175 9.99034 52.7012 9.86435C52.6546 9.50815 52.6383 9.14393 52.552 8.7969C52.4087 8.21735 52.0847 7.76494 51.4823 7.54275C50.825 7.30108 50.1748 7.32513 49.5304 7.57711C49.1761 7.71569 48.8731 7.9356 48.6716 8.25171C48.3837 8.70069 48.266 9.21266 48.1961 9.73149C48.1553 10.0281 48.1798 10.0453 48.4909 10.0465C49.1447 10.0488 49.7984 10.0465 50.4521 10.0465L50.451 10.0453Z" fill="#000E59"/>
<path id="Vector_5" d="M39.3421 14.9257C39.3619 14.865 39.3864 14.8054 39.4027 14.7436C40.0308 12.3578 40.6577 9.97209 41.2858 7.58634C41.3651 7.28397 41.442 6.97931 41.5375 6.68152C41.7193 6.11802 42.3055 5.67821 42.9068 5.65072C43.134 5.64041 43.3624 5.64728 43.5897 5.64843C44.0663 5.65301 44.5755 6.15581 44.3762 6.74108C43.9521 7.99638 43.5442 9.25625 43.1294 10.515C42.5887 12.1563 42.0503 13.7987 41.5038 15.4388C41.2987 16.055 40.8395 16.4169 40.1963 16.4811C39.6299 16.5372 39.0508 16.5463 38.4833 16.4994C37.7328 16.4364 37.2352 16.0103 37.0022 15.3002C36.6572 14.2488 36.3088 13.1997 35.9627 12.1494C35.5677 10.9502 35.1738 9.74989 34.7787 8.55072C34.5946 7.99179 34.4128 7.43172 34.2217 6.87509C34.0947 6.504 34.0924 6.15467 34.4187 5.88666C34.5527 5.77671 34.7356 5.68164 34.9058 5.66332C35.2169 5.6301 35.5397 5.62208 35.8473 5.66904C36.5349 5.77327 36.9847 6.17872 37.163 6.83729C37.4718 7.9769 37.7631 9.12225 38.0626 10.2642C38.4518 11.7508 38.8422 13.2375 39.2337 14.723C39.2512 14.7905 39.2768 14.857 39.299 14.9245C39.3118 14.9257 39.3258 14.9268 39.3386 14.928L39.3421 14.9257Z" fill="#000E59"/>
</g>
</svg>
