<svg width="1596" height="1150" viewBox="0 0 1596 1150" fill="none" xmlns="http://www.w3.org/2000/svg">
<g opacity="0.3" clip-path="url(#clip0_71_218)">
<path d="M376.057 443.386L231.838 587.412C227.103 592.14 221.482 595.891 215.296 598.45C209.11 601.009 202.479 602.326 195.783 602.326C189.087 602.326 182.457 601.009 176.271 598.45C170.084 595.891 164.463 592.14 159.728 587.412C154.994 582.683 151.238 577.07 148.675 570.892C146.113 564.714 144.794 558.092 144.794 551.405C144.794 544.718 146.113 538.097 148.675 531.919C151.238 525.741 154.994 520.127 159.728 515.399L303.905 371.373C313.587 361.949 319.124 349.07 319.298 335.569C319.472 322.068 314.268 309.051 304.832 299.381C295.395 289.712 282.499 284.182 268.98 284.008C255.461 283.835 242.426 289.031 232.744 298.455C232.407 298.72 232.09 299.007 231.795 299.317C231.493 299.661 231.148 299.963 230.889 300.307L-151.007 681.692C-165.131 696.251 -182.015 707.859 -200.674 715.838C-219.334 723.818 -239.397 728.01 -259.695 728.17C-279.993 728.331 -300.12 724.457 -318.904 716.773C-337.688 709.09 -354.754 697.751 -369.107 683.417C-383.46 669.083 -394.814 652.041 -402.508 633.282C-410.201 614.523 -414.081 594.423 -413.92 574.152C-413.759 553.882 -409.561 533.845 -401.571 515.211C-393.581 496.576 -381.958 479.715 -367.379 465.61L15.4661 83.2778C20.2008 78.5494 23.9567 72.9359 26.5191 66.7579C29.0816 60.5799 30.4005 53.9583 30.4005 47.2713C30.4005 40.5843 29.0816 33.9627 26.5191 27.7847C23.9567 21.6067 20.2008 15.9933 15.4661 11.2648C10.7313 6.53638 5.11026 2.78557 -1.07604 0.226554C-7.26233 -2.33246 -13.8928 -3.64956 -20.5888 -3.64956C-27.2848 -3.64956 -33.9152 -2.33245 -40.1015 0.226562C-46.2878 2.78558 -51.9088 6.53638 -56.6436 11.2648L-439.489 393.597C-453.613 408.156 -470.496 419.764 -489.156 427.743C-507.816 435.723 -527.879 439.915 -548.177 440.075C-568.475 440.236 -588.602 436.362 -607.386 428.678C-626.17 420.995 -643.235 409.656 -657.589 395.322C-671.942 380.988 -683.296 363.946 -690.989 345.187C-698.683 326.428 -702.562 306.328 -702.401 286.057C-702.241 265.787 -698.043 245.75 -690.053 227.116C-682.063 208.481 -670.44 191.62 -655.861 177.515L-511.642 33.4459C-502.068 23.8906 -489.085 18.5248 -475.55 18.5289C-462.015 18.5329 -449.035 23.9065 -439.467 33.4674C-429.899 43.0283 -424.526 55.9935 -424.53 69.5107C-424.534 83.0278 -429.915 95.9898 -439.489 105.545L-583.751 249.528C-592.931 259.156 -597.979 271.986 -597.818 285.279C-597.657 298.573 -592.299 311.277 -582.889 320.68C-573.478 330.084 -560.761 335.441 -547.449 335.61C-534.138 335.779 -521.288 330.746 -511.642 321.584L-128.796 -60.7482C-114.672 -75.3074 -97.7888 -86.9148 -79.129 -94.8943C-60.4693 -102.874 -40.4062 -107.066 -20.1083 -107.226C0.18959 -107.387 20.3166 -103.513 39.1006 -95.8296C57.8847 -88.1464 74.9502 -76.8076 89.3034 -62.4736C103.657 -48.1396 115.011 -31.0969 122.704 -12.3381C130.398 6.42075 134.277 26.5208 134.116 46.7915C133.956 67.0622 129.758 87.0983 121.768 105.733C113.777 124.368 102.155 141.229 87.5757 155.334L-295.27 537.666C-304.444 547.3 -309.484 560.132 -309.315 573.426C-309.146 586.719 -303.781 599.42 -294.365 608.818C-284.949 618.216 -272.227 623.566 -258.916 623.727C-245.605 623.888 -232.758 618.846 -223.117 609.679L162.532 224.547C191.59 196.27 230.707 180.679 271.277 181.204C311.846 181.729 350.545 198.327 378.861 227.347C407.176 256.367 422.788 295.431 422.262 335.946C421.736 376.461 405.116 415.109 376.057 443.386V443.386Z" stroke="#FEFEFE" stroke-opacity="0.5" stroke-width="8"/>
<path d="M1573.06 443.386L1428.84 587.412C1424.1 592.14 1418.48 595.891 1412.3 598.45C1406.11 601.009 1399.48 602.326 1392.78 602.326C1386.09 602.326 1379.46 601.009 1373.27 598.45C1367.08 595.891 1361.46 592.14 1356.73 587.412C1351.99 582.683 1348.24 577.07 1345.68 570.892C1343.11 564.714 1341.79 558.092 1341.79 551.405C1341.79 544.718 1343.11 538.097 1345.68 531.919C1348.24 525.741 1351.99 520.127 1356.73 515.399L1500.9 371.373C1510.59 361.949 1516.12 349.07 1516.3 335.569C1516.47 322.068 1511.27 309.051 1501.83 299.381C1492.4 289.712 1479.5 284.182 1465.98 284.008C1452.46 283.835 1439.43 289.031 1429.74 298.455C1429.41 298.72 1429.09 299.007 1428.79 299.317C1428.49 299.661 1428.15 299.963 1427.89 300.307L1045.99 681.692C1031.87 696.251 1014.99 707.859 996.326 715.838C977.666 723.818 957.603 728.01 937.305 728.17C917.007 728.331 896.88 724.457 878.096 716.773C859.312 709.09 842.246 697.751 827.893 683.417C813.54 669.083 802.186 652.041 794.492 633.282C786.799 614.523 782.919 594.423 783.08 574.152C783.241 553.882 787.439 533.845 795.429 515.211C803.419 496.576 815.042 479.715 829.621 465.61L1212.47 83.2778C1217.2 78.5494 1220.96 72.9359 1223.52 66.7579C1226.08 60.5799 1227.4 53.9583 1227.4 47.2713C1227.4 40.5843 1226.08 33.9627 1223.52 27.7847C1220.96 21.6067 1217.2 15.9933 1212.47 11.2648C1207.73 6.53638 1202.11 2.78557 1195.92 0.226554C1189.74 -2.33246 1183.11 -3.64956 1176.41 -3.64956C1169.72 -3.64956 1163.08 -2.33245 1156.9 0.226562C1150.71 2.78558 1145.09 6.53638 1140.36 11.2648L757.511 393.597C743.387 408.156 726.504 419.764 707.844 427.743C689.184 435.723 669.121 439.915 648.823 440.075C628.525 440.236 608.398 436.362 589.614 428.678C570.83 420.995 553.765 409.656 539.411 395.322C525.058 380.988 513.704 363.946 506.011 345.187C498.317 326.428 494.438 306.328 494.599 286.057C494.759 265.787 498.957 245.75 506.947 227.116C514.937 208.481 526.56 191.62 541.139 177.515L685.358 33.4459C694.932 23.8906 707.915 18.5248 721.45 18.5289C734.985 18.5329 747.965 23.9065 757.533 33.4674C767.101 43.0283 772.474 55.9935 772.47 69.5107C772.466 83.0278 767.085 95.9898 757.511 105.545L613.249 249.528C604.069 259.156 599.021 271.986 599.182 285.279C599.343 298.573 604.701 311.277 614.111 320.68C623.522 330.084 636.239 335.441 649.551 335.61C662.862 335.779 675.712 330.746 685.358 321.584L1068.2 -60.7482C1082.33 -75.3074 1099.21 -86.9148 1117.87 -94.8943C1136.53 -102.874 1156.59 -107.066 1176.89 -107.226C1197.19 -107.387 1217.32 -103.513 1236.1 -95.8296C1254.88 -88.1464 1271.95 -76.8076 1286.3 -62.4736C1300.66 -48.1396 1312.01 -31.0969 1319.7 -12.3381C1327.4 6.42075 1331.28 26.5208 1331.12 46.7915C1330.96 67.0622 1326.76 87.0983 1318.77 105.733C1310.78 124.368 1299.15 141.229 1284.58 155.334L901.73 537.666C892.556 547.3 887.516 560.132 887.685 573.426C887.854 586.719 893.219 599.42 902.635 608.818C912.051 618.216 924.773 623.566 938.084 623.727C951.395 623.888 964.242 618.846 973.883 609.679L1359.53 224.547C1388.59 196.27 1427.71 180.679 1468.28 181.204C1508.85 181.729 1547.55 198.327 1575.86 227.347C1604.18 256.367 1619.79 295.431 1619.26 335.946C1618.74 376.461 1602.12 415.109 1573.06 443.386V443.386Z" stroke="#FEFEFE" stroke-opacity="0.5" stroke-width="8"/>
<path d="M2208.13 -139.32L2063.91 4.70559C2059.18 9.43403 2053.56 13.1848 2047.37 15.7438C2041.18 18.3029 2034.55 19.6199 2027.86 19.6199C2021.16 19.6199 2014.53 18.3029 2008.35 15.7438C2002.16 13.1848 1996.54 9.43403 1991.8 4.70559C1987.07 -0.0228511 1983.31 -5.63633 1980.75 -11.8143C1978.19 -17.9923 1976.87 -24.6139 1976.87 -31.3009C1976.87 -37.9879 1978.19 -44.6095 1980.75 -50.7875C1983.31 -56.9655 1987.07 -62.579 1991.8 -67.3074L2135.98 -211.333C2145.66 -220.757 2151.2 -233.636 2151.37 -247.137C2151.55 -260.638 2146.34 -273.655 2136.91 -283.325C2127.47 -292.994 2114.57 -298.524 2101.05 -298.698C2087.54 -298.871 2074.5 -293.675 2064.82 -284.251C2064.48 -283.987 2064.17 -283.699 2063.87 -283.389C2063.57 -283.045 2063.22 -282.743 2062.96 -282.399L1681.07 98.9857C1666.94 113.545 1650.06 125.152 1631.4 133.132C1612.74 141.111 1592.68 145.303 1572.38 145.464C1552.08 145.625 1531.95 141.75 1513.17 134.067C1494.39 126.384 1477.32 115.045 1462.97 100.711C1448.61 86.3772 1437.26 69.3345 1429.57 50.5757C1421.87 31.8168 1417.99 11.7168 1418.16 -8.55392C1418.32 -28.8246 1422.51 -48.8608 1430.5 -67.4956C1438.49 -86.1303 1450.12 -102.991 1464.7 -117.096L1847.54 -499.428C1852.28 -504.157 1856.03 -509.77 1858.59 -515.948C1861.16 -522.126 1862.48 -528.748 1862.48 -535.435C1862.48 -542.122 1861.16 -548.743 1858.59 -554.922C1856.03 -561.1 1852.28 -566.713 1847.54 -571.441C1842.81 -576.17 1837.19 -579.921 1831 -582.48C1824.81 -585.039 1818.18 -586.356 1811.49 -586.356C1804.79 -586.356 1798.16 -585.039 1791.97 -582.48C1785.79 -579.921 1780.17 -576.17 1775.43 -571.441L1392.59 -189.109C1378.46 -174.55 1361.58 -162.943 1342.92 -154.963C1324.26 -146.984 1304.2 -142.792 1283.9 -142.631C1263.6 -142.47 1243.47 -146.345 1224.69 -154.028C1205.91 -161.711 1188.84 -173.05 1174.49 -187.384C1160.13 -201.718 1148.78 -218.761 1141.09 -237.519C1133.39 -256.278 1129.51 -276.378 1129.67 -296.649C1129.83 -316.92 1134.03 -336.956 1142.02 -355.591C1150.01 -374.225 1161.64 -391.086 1176.21 -405.191L1320.43 -549.26C1330.01 -558.816 1342.99 -564.181 1356.53 -564.177C1370.06 -564.173 1383.04 -558.8 1392.61 -549.239C1402.18 -539.678 1407.55 -526.713 1407.54 -513.196C1407.54 -499.678 1402.16 -486.716 1392.59 -477.161L1248.32 -333.178C1239.14 -323.55 1234.1 -310.72 1234.26 -297.427C1234.42 -284.134 1239.78 -271.429 1249.19 -262.026C1258.6 -252.623 1271.31 -247.265 1284.63 -247.096C1297.94 -246.927 1310.79 -251.961 1320.43 -261.122L1703.28 -643.454C1717.4 -658.014 1734.29 -669.621 1752.95 -677.601C1771.61 -685.58 1791.67 -689.772 1811.97 -689.933C1832.26 -690.093 1852.39 -686.219 1871.18 -678.536C1889.96 -670.853 1907.03 -659.514 1921.38 -645.18C1935.73 -630.846 1947.09 -613.803 1954.78 -595.044C1962.47 -576.285 1966.35 -556.185 1966.19 -535.915C1966.03 -515.644 1961.83 -495.608 1953.84 -476.973C1945.85 -458.338 1934.23 -441.477 1919.65 -427.372L1536.81 -45.0402C1527.63 -35.4067 1522.59 -22.5738 1522.76 -9.28045C1522.93 4.0129 1528.29 16.7138 1537.71 26.1116C1547.13 35.5093 1559.85 40.8596 1573.16 41.0205C1586.47 41.1814 1599.32 36.1402 1608.96 26.9728L1994.61 -358.159C2023.67 -386.436 2062.78 -402.027 2103.35 -401.502C2143.92 -400.977 2182.62 -384.379 2210.94 -355.359C2239.25 -326.34 2254.86 -287.275 2254.34 -246.76C2253.81 -206.245 2237.19 -167.598 2208.13 -139.32V-139.32Z" stroke="#FEFEFE" stroke-opacity="0.5" stroke-width="8"/>
<path d="M938.016 1016.12L793.904 1160.14C789.172 1164.87 783.556 1168.62 777.374 1171.18C771.192 1173.74 764.567 1175.06 757.876 1175.06C751.185 1175.06 744.559 1173.74 738.377 1171.18C732.196 1168.62 726.579 1164.87 721.847 1160.14C717.116 1155.41 713.363 1149.8 710.803 1143.62C708.242 1137.45 706.924 1130.82 706.924 1124.14C706.924 1117.45 708.242 1110.83 710.803 1104.65C713.363 1098.47 717.116 1092.86 721.847 1088.13L865.917 944.104C875.592 934.68 881.125 921.801 881.299 908.3C881.473 894.799 876.273 881.782 866.844 872.113C857.414 862.443 844.527 856.913 831.018 856.74C817.509 856.566 804.484 861.763 794.809 871.187C794.473 871.451 794.156 871.739 793.861 872.048C793.559 872.393 793.214 872.694 792.956 873.039L411.341 1254.42C397.228 1268.98 380.357 1280.59 361.711 1288.57C343.065 1296.55 323.017 1300.74 302.734 1300.9C282.451 1301.06 262.339 1297.19 243.569 1289.5C224.799 1281.82 207.746 1270.48 193.403 1256.15C179.06 1241.81 167.715 1224.77 160.027 1206.01C152.339 1187.25 148.462 1167.15 148.623 1146.88C148.784 1126.61 152.978 1106.58 160.963 1087.94C168.947 1069.31 180.561 1052.45 195.129 1038.34L577.692 656.009C582.423 651.281 586.176 645.667 588.737 639.489C591.297 633.311 592.615 626.69 592.615 620.003C592.615 613.316 591.297 606.694 588.737 600.516C586.176 594.338 582.423 588.725 577.692 583.996C572.96 579.268 567.344 575.517 561.162 572.958C554.98 570.399 548.355 569.082 541.664 569.082C534.972 569.082 528.347 570.399 522.165 572.958C515.984 575.517 510.367 579.268 505.635 583.996L123.073 966.328C108.96 980.887 92.0885 992.495 73.4425 1000.47C54.7965 1008.45 34.7483 1012.65 14.4654 1012.81C-5.81745 1012.97 -25.9296 1009.09 -44.6997 1001.41C-63.4699 993.726 -80.5228 982.388 -94.8654 968.054C-109.208 953.72 -120.554 936.677 -128.242 917.918C-135.929 899.159 -139.806 879.059 -139.645 858.789C-139.485 838.518 -135.29 818.482 -127.306 799.847C-119.321 781.212 -107.707 764.351 -93.139 750.246L50.9737 606.177C60.5404 596.622 73.5133 591.256 87.0387 591.26C100.564 591.264 113.534 596.638 123.095 606.199C132.656 615.76 138.025 628.725 138.021 642.242C138.017 655.759 132.64 668.721 123.073 678.276L-21.0826 822.259C-30.2556 831.887 -35.2998 844.717 -35.1389 858.011C-34.9779 871.304 -29.6244 884.008 -20.221 893.411C-10.8175 902.815 1.89102 908.173 15.1924 908.342C28.4937 908.51 41.3343 903.477 50.9737 894.315L433.536 511.983C447.65 497.424 464.521 485.816 483.167 477.837C501.812 469.857 521.861 465.665 542.144 465.505C562.427 465.344 582.539 469.218 601.309 476.902C620.079 484.585 637.132 495.924 651.474 510.258C665.817 524.592 677.163 541.634 684.851 560.393C692.538 579.152 696.415 599.252 696.254 619.523C696.094 639.793 691.899 659.83 683.915 678.464C675.93 697.099 664.316 713.96 649.748 728.065L267.186 1110.4C258.019 1120.03 252.982 1132.86 253.151 1146.16C253.32 1159.45 258.681 1172.15 268.09 1181.55C277.499 1190.95 290.211 1196.3 303.512 1196.46C316.814 1196.62 329.651 1191.58 339.285 1182.41L724.649 797.279C753.686 769.001 792.774 753.41 833.313 753.935C873.853 754.46 912.523 771.058 940.818 800.078C969.112 829.098 984.712 868.162 984.187 908.677C983.662 949.193 967.054 987.84 938.016 1016.12V1016.12Z" stroke="#FEFEFE" stroke-opacity="0.5" stroke-width="8"/>
<path d="M2135.81 1016.12L1991.59 1160.14C1986.86 1164.87 1981.24 1168.62 1975.05 1171.18C1968.87 1173.74 1962.24 1175.06 1955.54 1175.06C1948.84 1175.06 1942.21 1173.74 1936.03 1171.18C1929.84 1168.62 1924.22 1164.87 1919.48 1160.14C1914.75 1155.41 1910.99 1149.8 1908.43 1143.62C1905.87 1137.45 1904.55 1130.82 1904.55 1124.14C1904.55 1117.45 1905.87 1110.83 1908.43 1104.65C1910.99 1098.47 1914.75 1092.86 1919.48 1088.13L2063.66 944.104C2073.34 934.68 2078.88 921.801 2079.05 908.3C2079.23 894.799 2074.02 881.782 2064.59 872.113C2055.15 862.443 2042.26 856.913 2028.74 856.74C2015.22 856.566 2002.18 861.763 1992.5 871.187C1992.16 871.451 1991.85 871.739 1991.55 872.048C1991.25 872.393 1990.9 872.694 1990.65 873.039L1608.75 1254.42C1594.63 1268.98 1577.74 1280.59 1559.08 1288.57C1540.42 1296.55 1520.36 1300.74 1500.06 1300.9C1479.76 1301.06 1459.64 1297.19 1440.85 1289.5C1422.07 1281.82 1405 1270.48 1390.65 1256.15C1376.3 1241.81 1364.94 1224.77 1357.25 1206.01C1349.55 1187.25 1345.68 1167.15 1345.84 1146.88C1346 1126.61 1350.19 1106.58 1358.19 1087.94C1366.18 1069.31 1377.8 1052.45 1392.38 1038.34L1775.22 656.009C1779.96 651.281 1783.71 645.667 1786.28 639.489C1788.84 633.311 1790.16 626.69 1790.16 620.003C1790.16 613.316 1788.84 606.694 1786.28 600.516C1783.71 594.338 1779.96 588.725 1775.22 583.996C1770.49 579.268 1764.87 575.517 1758.68 572.958C1752.49 570.399 1745.86 569.082 1739.17 569.082C1732.47 569.082 1725.84 570.399 1719.65 572.958C1713.47 575.517 1707.85 579.268 1703.11 583.996L1320.27 966.328C1306.14 980.887 1289.26 992.495 1270.6 1000.47C1251.94 1008.45 1231.88 1012.65 1211.58 1012.81C1191.28 1012.97 1171.15 1009.09 1152.37 1001.41C1133.59 993.726 1116.52 982.388 1102.17 968.054C1087.81 953.72 1076.46 936.677 1068.77 917.918C1061.07 899.159 1057.19 879.059 1057.35 858.789C1057.52 838.518 1061.71 818.482 1069.7 799.847C1077.69 781.212 1089.32 764.351 1103.9 750.246L1248.11 606.177C1257.69 596.622 1270.67 591.256 1284.21 591.26C1297.74 591.264 1310.72 596.638 1320.29 606.199C1329.86 615.76 1335.23 628.725 1335.23 642.242C1335.22 655.759 1329.84 668.721 1320.27 678.276L1176.01 822.259C1166.83 831.887 1161.78 844.717 1161.94 858.011C1162.1 871.304 1167.46 884.008 1176.87 893.411C1186.28 902.815 1199 908.173 1212.31 908.342C1225.62 908.51 1238.47 903.477 1248.11 894.315L1630.96 511.983C1645.08 497.424 1661.97 485.816 1680.63 477.837C1699.29 469.857 1719.35 465.665 1739.65 465.505C1759.95 465.344 1780.07 469.218 1798.86 476.902C1817.64 484.585 1834.71 495.924 1849.06 510.258C1863.41 524.592 1874.77 541.634 1882.46 560.393C1890.15 579.152 1894.03 599.252 1893.87 619.523C1893.71 639.793 1889.51 659.83 1881.52 678.464C1873.53 697.099 1861.91 713.96 1847.33 728.065L1464.49 1110.4C1455.31 1120.03 1450.27 1132.86 1450.44 1146.16C1450.61 1159.45 1455.98 1172.15 1465.39 1181.55C1474.81 1190.95 1487.53 1196.3 1500.84 1196.46C1514.15 1196.62 1527 1191.58 1536.64 1182.41L1922.29 797.279C1951.35 769.001 1990.46 753.41 2031.03 753.935C2071.6 754.46 2110.3 771.058 2138.62 800.078C2166.93 829.098 2182.54 868.162 2182.02 908.677C2181.49 949.193 2164.87 987.84 2135.81 1016.12V1016.12Z" stroke="#FEFEFE" stroke-opacity="0.5" stroke-width="8"/>
<path d="M1010.3 -139.32L866.082 4.70559C861.347 9.43403 855.726 13.1848 849.54 15.7438C843.353 18.3029 836.723 19.6199 830.027 19.6199C823.331 19.6199 816.701 18.3029 810.514 15.7438C804.328 13.1848 798.707 9.43403 793.972 4.70559C789.237 -0.0228511 785.482 -5.63633 782.919 -11.8143C780.357 -17.9923 779.038 -24.6139 779.038 -31.3009C779.038 -37.9879 780.357 -44.6095 782.919 -50.7875C785.482 -56.9655 789.237 -62.579 793.972 -67.3074L938.148 -211.333C947.831 -220.757 953.368 -233.636 953.542 -247.137C953.716 -260.638 948.512 -273.655 939.076 -283.325C929.639 -292.994 916.743 -298.524 903.224 -298.698C889.704 -298.871 876.67 -293.675 866.987 -284.251C866.651 -283.987 866.334 -283.699 866.039 -283.389C865.737 -283.045 865.392 -282.743 865.133 -282.399L483.237 98.9857C469.113 113.545 452.229 125.152 433.569 133.132C414.91 141.111 394.846 145.303 374.549 145.464C354.251 145.625 334.124 141.75 315.34 134.067C296.556 126.384 279.49 115.045 265.137 100.711C250.784 86.3772 239.43 69.3345 231.736 50.5757C224.042 31.8168 220.163 11.7168 220.324 -8.55392C220.485 -28.8246 224.682 -48.8608 232.673 -67.4956C240.663 -86.1303 252.286 -102.991 266.865 -117.096L649.71 -499.428C654.445 -504.157 658.2 -509.77 660.763 -515.948C663.325 -522.126 664.644 -528.748 664.644 -535.435C664.644 -542.122 663.325 -548.743 660.763 -554.922C658.2 -561.1 654.445 -566.713 649.71 -571.441C644.975 -576.17 639.354 -579.921 633.168 -582.48C626.981 -585.039 620.351 -586.356 613.655 -586.356C606.959 -586.356 600.329 -585.039 594.142 -582.48C587.956 -579.921 582.335 -576.17 577.6 -571.441L194.755 -189.109C180.631 -174.55 163.747 -162.943 145.088 -154.963C126.428 -146.984 106.365 -142.792 86.067 -142.631C65.7691 -142.47 45.6421 -146.345 26.858 -154.028C8.07403 -161.711 -8.99152 -173.05 -23.3447 -187.384C-37.698 -201.718 -49.052 -218.761 -56.7456 -237.519C-64.4391 -256.278 -68.3185 -276.378 -68.1577 -296.649C-67.9969 -316.92 -63.7992 -336.956 -55.809 -355.591C-47.8188 -374.225 -36.1958 -391.086 -21.617 -405.191L122.602 -549.26C132.176 -558.816 145.159 -564.181 158.694 -564.177C172.229 -564.173 185.209 -558.8 194.777 -549.239C204.345 -539.678 209.718 -526.713 209.714 -513.196C209.71 -499.678 204.329 -486.716 194.755 -477.161L50.4926 -333.178C41.3129 -323.55 36.2649 -310.72 36.426 -297.427C36.5871 -284.134 41.9446 -271.429 51.3549 -262.026C60.7653 -252.623 73.4833 -247.265 86.7945 -247.096C100.106 -246.927 112.956 -251.961 122.602 -261.122L505.447 -643.454C519.571 -658.014 536.455 -669.621 555.115 -677.601C573.775 -685.58 593.838 -689.772 614.135 -689.933C634.433 -690.093 654.56 -686.219 673.344 -678.536C692.128 -670.853 709.194 -659.514 723.547 -645.18C737.9 -630.846 749.254 -613.803 756.948 -595.044C764.642 -576.285 768.521 -556.185 768.36 -535.915C768.199 -515.644 764.002 -495.608 756.011 -476.973C748.021 -458.338 736.398 -441.477 721.819 -427.372L338.974 -45.0402C329.8 -35.4067 324.76 -22.5738 324.929 -9.28045C325.098 4.0129 330.463 16.7138 339.879 26.1116C349.295 35.5093 362.016 40.8596 375.328 41.0205C388.639 41.1814 401.486 36.1402 411.127 26.9728L796.775 -358.159C825.834 -386.436 864.951 -402.027 905.521 -401.502C946.09 -400.977 984.789 -384.379 1013.1 -355.359C1041.42 -326.34 1057.03 -287.275 1056.51 -246.76C1055.98 -206.245 1039.36 -167.598 1010.3 -139.32V-139.32Z" stroke="#FEFEFE" stroke-opacity="0.5" stroke-width="8"/>
</g>
<defs>
<clipPath id="clip0_71_218">
<rect width="1596" height="1150" fill="white"/>
</clipPath>
</defs>
</svg>
