<svg width="1080" height="1080" viewBox="0 0 1080 1080" fill="none" xmlns="http://www.w3.org/2000/svg">
<g clip-path="url(#clip0_7352_3166)">
<rect width="1080" height="1080" fill="white"/>
<rect width="1080" height="756" fill="#EC0000"/>
<rect x="874" y="620" width="160" height="136" rx="8" fill="#EC0000"/>
<path d="M945.89 696L948.122 683.203H949.713L947.48 696H945.89ZM949.186 696L951.427 683.203H953.018L950.776 696H949.186ZM954.327 688.345H945.178V686.859H954.327V688.345ZM953.659 692.396H944.519V690.92H953.659V692.396ZM964.399 693.943V696H957.588V693.943H964.399ZM958.449 683.203V696H955.812V683.203H958.449ZM963.512 688.415V690.419H957.588V688.415H963.512ZM964.391 683.203V685.269H957.588V683.203H964.391ZM973.355 691.755H975.983C975.931 692.616 975.693 693.381 975.271 694.049C974.855 694.717 974.272 695.238 973.522 695.613C972.778 695.988 971.882 696.176 970.833 696.176C970.013 696.176 969.277 696.035 968.627 695.754C967.977 695.467 967.42 695.057 966.957 694.523C966.5 693.99 966.151 693.346 965.911 692.59C965.671 691.834 965.551 690.987 965.551 690.05V689.162C965.551 688.225 965.674 687.378 965.92 686.622C966.172 685.86 966.529 685.213 966.992 684.68C967.461 684.146 968.021 683.736 968.671 683.449C969.321 683.162 970.048 683.019 970.851 683.019C971.917 683.019 972.816 683.212 973.549 683.599C974.287 683.985 974.858 684.519 975.263 685.198C975.673 685.878 975.919 686.651 976.001 687.519H973.364C973.335 687.003 973.232 686.566 973.057 686.209C972.881 685.846 972.614 685.573 972.257 685.392C971.905 685.204 971.437 685.11 970.851 685.11C970.411 685.11 970.027 685.192 969.699 685.356C969.371 685.521 969.096 685.77 968.873 686.104C968.65 686.438 968.483 686.859 968.372 687.369C968.267 687.873 968.214 688.465 968.214 689.145V690.05C968.214 690.712 968.264 691.295 968.363 691.799C968.463 692.297 968.615 692.719 968.82 693.064C969.031 693.404 969.301 693.662 969.629 693.838C969.963 694.008 970.364 694.093 970.833 694.093C971.384 694.093 971.838 694.005 972.195 693.829C972.553 693.653 972.825 693.393 973.013 693.047C973.206 692.701 973.32 692.271 973.355 691.755ZM986.064 688.477V690.691C986.064 691.652 985.962 692.481 985.757 693.179C985.552 693.87 985.256 694.438 984.869 694.884C984.488 695.323 984.034 695.648 983.507 695.859C982.979 696.07 982.394 696.176 981.749 696.176C981.233 696.176 980.753 696.111 980.308 695.982C979.862 695.848 979.461 695.64 979.104 695.358C978.752 695.077 978.447 694.723 978.189 694.295C977.938 693.861 977.744 693.346 977.609 692.748C977.475 692.15 977.407 691.465 977.407 690.691V688.477C977.407 687.516 977.51 686.692 977.715 686.007C977.926 685.315 978.222 684.75 978.603 684.311C978.989 683.871 979.446 683.549 979.974 683.344C980.501 683.133 981.087 683.027 981.731 683.027C982.247 683.027 982.725 683.095 983.164 683.229C983.609 683.358 984.011 683.561 984.368 683.836C984.726 684.111 985.03 684.466 985.282 684.899C985.534 685.327 985.728 685.84 985.862 686.438C985.997 687.029 986.064 687.709 986.064 688.477ZM983.524 691.025V688.134C983.524 687.671 983.498 687.267 983.445 686.921C983.398 686.575 983.325 686.282 983.226 686.042C983.126 685.796 983.003 685.597 982.856 685.444C982.71 685.292 982.543 685.181 982.355 685.11C982.168 685.04 981.96 685.005 981.731 685.005C981.444 685.005 981.189 685.061 980.967 685.172C980.75 685.283 980.565 685.462 980.413 685.708C980.261 685.948 980.144 686.271 980.062 686.675C979.985 687.073 979.947 687.56 979.947 688.134V691.025C979.947 691.488 979.971 691.896 980.018 692.247C980.07 692.599 980.146 692.9 980.246 693.152C980.352 693.398 980.475 693.601 980.615 693.759C980.762 693.911 980.929 694.022 981.116 694.093C981.31 694.163 981.521 694.198 981.749 694.198C982.03 694.198 982.279 694.143 982.496 694.031C982.719 693.914 982.906 693.732 983.059 693.486C983.217 693.234 983.334 692.906 983.41 692.502C983.486 692.098 983.524 691.605 983.524 691.025ZM996.4 688.477V690.691C996.4 691.652 996.298 692.481 996.093 693.179C995.888 693.87 995.592 694.438 995.205 694.884C994.824 695.323 994.37 695.648 993.843 695.859C993.315 696.07 992.729 696.176 992.085 696.176C991.569 696.176 991.089 696.111 990.644 695.982C990.198 695.848 989.797 695.64 989.439 695.358C989.088 695.077 988.783 694.723 988.525 694.295C988.273 693.861 988.08 693.346 987.945 692.748C987.811 692.15 987.743 691.465 987.743 690.691V688.477C987.743 687.516 987.846 686.692 988.051 686.007C988.262 685.315 988.558 684.75 988.938 684.311C989.325 683.871 989.782 683.549 990.31 683.344C990.837 683.133 991.423 683.027 992.067 683.027C992.583 683.027 993.061 683.095 993.5 683.229C993.945 683.358 994.347 683.561 994.704 683.836C995.062 684.111 995.366 684.466 995.618 684.899C995.87 685.327 996.063 685.84 996.198 686.438C996.333 687.029 996.4 687.709 996.4 688.477ZM993.86 691.025V688.134C993.86 687.671 993.834 687.267 993.781 686.921C993.734 686.575 993.661 686.282 993.562 686.042C993.462 685.796 993.339 685.597 993.192 685.444C993.046 685.292 992.879 685.181 992.691 685.11C992.504 685.04 992.296 685.005 992.067 685.005C991.78 685.005 991.525 685.061 991.303 685.172C991.086 685.283 990.901 685.462 990.749 685.708C990.597 685.948 990.479 686.271 990.397 686.675C990.321 687.073 990.283 687.56 990.283 688.134V691.025C990.283 691.488 990.307 691.896 990.354 692.247C990.406 692.599 990.482 692.9 990.582 693.152C990.688 693.398 990.811 693.601 990.951 693.759C991.098 693.911 991.265 694.022 991.452 694.093C991.646 694.163 991.856 694.198 992.085 694.198C992.366 694.198 992.615 694.143 992.832 694.031C993.055 693.914 993.242 693.732 993.395 693.486C993.553 693.234 993.67 692.906 993.746 692.502C993.822 692.098 993.86 691.605 993.86 691.025ZM1006.74 688.477V690.691C1006.74 691.652 1006.63 692.481 1006.43 693.179C1006.22 693.87 1005.93 694.438 1005.54 694.884C1005.16 695.323 1004.71 695.648 1004.18 695.859C1003.65 696.07 1003.07 696.176 1002.42 696.176C1001.91 696.176 1001.42 696.111 1000.98 695.982C1000.53 695.848 1000.13 695.64 999.775 695.358C999.424 695.077 999.119 694.723 998.861 694.295C998.609 693.861 998.416 693.346 998.281 692.748C998.146 692.15 998.079 691.465 998.079 690.691V688.477C998.079 687.516 998.182 686.692 998.387 686.007C998.598 685.315 998.894 684.75 999.274 684.311C999.661 683.871 1000.12 683.549 1000.65 683.344C1001.17 683.133 1001.76 683.027 1002.4 683.027C1002.92 683.027 1003.4 683.095 1003.84 683.229C1004.28 683.358 1004.68 683.561 1005.04 683.836C1005.4 684.111 1005.7 684.466 1005.95 684.899C1006.21 685.327 1006.4 685.84 1006.53 686.438C1006.67 687.029 1006.74 687.709 1006.74 688.477ZM1004.2 691.025V688.134C1004.2 687.671 1004.17 687.267 1004.12 686.921C1004.07 686.575 1004 686.282 1003.9 686.042C1003.8 685.796 1003.67 685.597 1003.53 685.444C1003.38 685.292 1003.21 685.181 1003.03 685.11C1002.84 685.04 1002.63 685.005 1002.4 685.005C1002.12 685.005 1001.86 685.061 1001.64 685.172C1001.42 685.283 1001.24 685.462 1001.08 685.708C1000.93 685.948 1000.82 686.271 1000.73 686.675C1000.66 687.073 1000.62 687.56 1000.62 688.134V691.025C1000.62 691.488 1000.64 691.896 1000.69 692.247C1000.74 692.599 1000.82 692.9 1000.92 693.152C1001.02 693.398 1001.15 693.601 1001.29 693.759C1001.43 693.911 1001.6 694.022 1001.79 694.093C1001.98 694.163 1002.19 694.198 1002.42 694.198C1002.7 694.198 1002.95 694.143 1003.17 694.031C1003.39 693.914 1003.58 693.732 1003.73 693.486C1003.89 693.234 1004.01 692.906 1004.08 692.502C1004.16 692.098 1004.2 691.605 1004.2 691.025ZM1017.07 688.477V690.691C1017.07 691.652 1016.97 692.481 1016.76 693.179C1016.56 693.87 1016.26 694.438 1015.88 694.884C1015.5 695.323 1015.04 695.648 1014.51 695.859C1013.99 696.07 1013.4 696.176 1012.76 696.176C1012.24 696.176 1011.76 696.111 1011.32 695.982C1010.87 695.848 1010.47 695.64 1010.11 695.358C1009.76 695.077 1009.46 694.723 1009.2 694.295C1008.95 693.861 1008.75 693.346 1008.62 692.748C1008.48 692.15 1008.42 691.465 1008.42 690.691V688.477C1008.42 687.516 1008.52 686.692 1008.72 686.007C1008.93 685.315 1009.23 684.75 1009.61 684.311C1010 683.871 1010.45 683.549 1010.98 683.344C1011.51 683.133 1012.09 683.027 1012.74 683.027C1013.25 683.027 1013.73 683.095 1014.17 683.229C1014.62 683.358 1015.02 683.561 1015.38 683.836C1015.73 684.111 1016.04 684.466 1016.29 684.899C1016.54 685.327 1016.74 685.84 1016.87 686.438C1017 687.029 1017.07 687.709 1017.07 688.477ZM1014.53 691.025V688.134C1014.53 687.671 1014.51 687.267 1014.45 686.921C1014.41 686.575 1014.33 686.282 1014.23 686.042C1014.13 685.796 1014.01 685.597 1013.86 685.444C1013.72 685.292 1013.55 685.181 1013.36 685.11C1013.18 685.04 1012.97 685.005 1012.74 685.005C1012.45 685.005 1012.2 685.061 1011.97 685.172C1011.76 685.283 1011.57 685.462 1011.42 685.708C1011.27 685.948 1011.15 686.271 1011.07 686.675C1010.99 687.073 1010.96 687.56 1010.96 688.134V691.025C1010.96 691.488 1010.98 691.896 1011.03 692.247C1011.08 692.599 1011.15 692.9 1011.25 693.152C1011.36 693.398 1011.48 693.601 1011.62 693.759C1011.77 693.911 1011.94 694.022 1012.12 694.093C1012.32 694.163 1012.53 694.198 1012.76 694.198C1013.04 694.198 1013.29 694.143 1013.5 694.031C1013.73 693.914 1013.91 693.732 1014.07 693.486C1014.22 693.234 1014.34 692.906 1014.42 692.502C1014.49 692.098 1014.53 691.605 1014.53 691.025Z" fill="#F2F2F2"/>
<path d="M931.143 720.203H935.915C936.894 720.203 937.734 720.35 938.438 720.643C939.146 720.936 939.691 721.369 940.072 721.943C940.453 722.518 940.644 723.224 940.644 724.062C940.644 724.747 940.526 725.336 940.292 725.828C940.063 726.314 939.738 726.722 939.316 727.05C938.9 727.372 938.411 727.63 937.849 727.823L937.014 728.263H932.865L932.848 726.206H935.933C936.396 726.206 936.779 726.124 937.084 725.96C937.389 725.796 937.617 725.567 937.77 725.274C937.928 724.981 938.007 724.642 938.007 724.255C938.007 723.845 937.931 723.49 937.778 723.191C937.626 722.893 937.395 722.664 937.084 722.506C936.773 722.348 936.384 722.269 935.915 722.269H933.779V733H931.143V720.203ZM938.297 733L935.379 727.296L938.165 727.278L941.118 732.877V733H938.297ZM942.111 728.342V728.157C942.111 727.46 942.211 726.818 942.41 726.232C942.609 725.641 942.899 725.128 943.28 724.694C943.661 724.261 944.13 723.924 944.687 723.684C945.243 723.438 945.882 723.314 946.603 723.314C947.323 723.314 947.965 723.438 948.527 723.684C949.09 723.924 949.562 724.261 949.942 724.694C950.329 725.128 950.622 725.641 950.821 726.232C951.021 726.818 951.12 727.46 951.12 728.157V728.342C951.12 729.033 951.021 729.675 950.821 730.267C950.622 730.853 950.329 731.365 949.942 731.805C949.562 732.238 949.093 732.575 948.536 732.815C947.979 733.056 947.341 733.176 946.62 733.176C945.899 733.176 945.258 733.056 944.695 732.815C944.139 732.575 943.667 732.238 943.28 731.805C942.899 731.365 942.609 730.853 942.41 730.267C942.211 729.675 942.111 729.033 942.111 728.342ZM944.643 728.157V728.342C944.643 728.74 944.678 729.112 944.748 729.458C944.818 729.804 944.93 730.108 945.082 730.372C945.24 730.63 945.445 730.832 945.697 730.979C945.949 731.125 946.257 731.198 946.62 731.198C946.972 731.198 947.273 731.125 947.525 730.979C947.777 730.832 947.979 730.63 948.132 730.372C948.284 730.108 948.396 729.804 948.466 729.458C948.542 729.112 948.58 728.74 948.58 728.342V728.157C948.58 727.771 948.542 727.407 948.466 727.067C948.396 726.722 948.281 726.417 948.123 726.153C947.971 725.884 947.769 725.673 947.517 725.521C947.265 725.368 946.96 725.292 946.603 725.292C946.245 725.292 945.94 725.368 945.688 725.521C945.442 725.673 945.24 725.884 945.082 726.153C944.93 726.417 944.818 726.722 944.748 727.067C944.678 727.407 944.643 727.771 944.643 728.157ZM955.207 725.459V733H952.667V723.49H955.049L955.207 725.459ZM954.855 727.911H954.152C954.152 727.249 954.231 726.64 954.39 726.083C954.554 725.521 954.791 725.034 955.102 724.624C955.418 724.208 955.808 723.886 956.271 723.657C956.733 723.429 957.27 723.314 957.879 723.314C958.301 723.314 958.688 723.379 959.039 723.508C959.391 723.631 959.692 723.827 959.944 724.097C960.202 724.36 960.401 724.706 960.542 725.134C960.683 725.556 960.753 726.062 960.753 726.654V733H958.222V726.936C958.222 726.502 958.163 726.168 958.046 725.934C957.929 725.699 957.762 725.535 957.545 725.441C957.334 725.348 957.079 725.301 956.78 725.301C956.452 725.301 956.165 725.368 955.919 725.503C955.679 725.638 955.479 725.825 955.321 726.065C955.163 726.3 955.046 726.575 954.97 726.892C954.894 727.208 954.855 727.548 954.855 727.911ZM960.516 727.621L959.61 727.735C959.61 727.114 959.687 726.537 959.839 726.004C959.997 725.471 960.229 725.002 960.533 724.598C960.844 724.193 961.228 723.88 961.685 723.657C962.142 723.429 962.669 723.314 963.267 723.314C963.724 723.314 964.14 723.382 964.515 723.517C964.89 723.646 965.209 723.854 965.473 724.141C965.742 724.422 965.947 724.791 966.088 725.248C966.234 725.705 966.308 726.265 966.308 726.927V733H963.768V726.927C963.768 726.487 963.709 726.153 963.592 725.925C963.48 725.69 963.316 725.529 963.1 725.441C962.889 725.348 962.637 725.301 962.344 725.301C962.039 725.301 961.772 725.362 961.544 725.485C961.315 725.603 961.125 725.767 960.973 725.978C960.82 726.188 960.706 726.435 960.63 726.716C960.554 726.991 960.516 727.293 960.516 727.621ZM973.4 730.855V726.619C973.4 726.314 973.351 726.054 973.251 725.837C973.151 725.614 972.996 725.441 972.785 725.318C972.58 725.195 972.313 725.134 971.985 725.134C971.704 725.134 971.461 725.184 971.256 725.283C971.051 725.377 970.893 725.515 970.781 725.696C970.67 725.872 970.614 726.08 970.614 726.32H968.083C968.083 725.916 968.177 725.532 968.364 725.169C968.552 724.806 968.824 724.486 969.182 724.211C969.539 723.93 969.964 723.71 970.456 723.552C970.954 723.394 971.511 723.314 972.126 723.314C972.864 723.314 973.521 723.438 974.095 723.684C974.669 723.93 975.12 724.299 975.448 724.791C975.782 725.283 975.949 725.898 975.949 726.637V730.706C975.949 731.228 975.981 731.655 976.046 731.989C976.11 732.317 976.204 732.604 976.327 732.851V733H973.77C973.646 732.742 973.553 732.42 973.488 732.033C973.43 731.641 973.4 731.248 973.4 730.855ZM973.734 727.208L973.752 728.641H972.337C972.003 728.641 971.713 728.679 971.467 728.755C971.221 728.831 971.019 728.939 970.86 729.08C970.702 729.215 970.585 729.373 970.509 729.555C970.438 729.736 970.403 729.936 970.403 730.152C970.403 730.369 970.453 730.565 970.553 730.741C970.652 730.911 970.796 731.046 970.983 731.146C971.171 731.239 971.391 731.286 971.643 731.286C972.023 731.286 972.354 731.21 972.636 731.058C972.917 730.905 973.134 730.718 973.286 730.495C973.444 730.272 973.526 730.062 973.532 729.862L974.2 730.935C974.106 731.175 973.978 731.424 973.813 731.682C973.655 731.939 973.453 732.183 973.207 732.411C972.961 732.634 972.665 732.818 972.319 732.965C971.974 733.105 971.563 733.176 971.089 733.176C970.485 733.176 969.938 733.056 969.445 732.815C968.959 732.569 968.572 732.232 968.285 731.805C968.004 731.371 967.863 730.879 967.863 730.328C967.863 729.83 967.957 729.388 968.145 729.001C968.332 728.614 968.607 728.289 968.971 728.025C969.34 727.756 969.8 727.554 970.351 727.419C970.901 727.278 971.54 727.208 972.267 727.208H973.734ZM980.379 725.521V733H977.848V723.49H980.221L980.379 725.521ZM980.01 727.911H979.324C979.324 727.208 979.415 726.575 979.597 726.013C979.778 725.444 980.033 724.961 980.361 724.562C980.689 724.158 981.079 723.851 981.53 723.64C981.987 723.423 982.497 723.314 983.06 723.314C983.505 723.314 983.912 723.379 984.281 723.508C984.65 723.637 984.967 723.842 985.23 724.123C985.5 724.404 985.705 724.776 985.846 725.239C985.992 725.702 986.065 726.268 986.065 726.936V733H983.517V726.927C983.517 726.505 983.458 726.177 983.341 725.942C983.224 725.708 983.051 725.544 982.822 725.45C982.6 725.351 982.324 725.301 981.996 725.301C981.656 725.301 981.36 725.368 981.108 725.503C980.862 725.638 980.657 725.825 980.493 726.065C980.335 726.3 980.215 726.575 980.133 726.892C980.051 727.208 980.01 727.548 980.01 727.911ZM995.004 725.564V733H992.473V723.49H994.854L995.004 725.564ZM997.869 723.429L997.825 725.775C997.702 725.758 997.553 725.743 997.377 725.731C997.207 725.714 997.052 725.705 996.911 725.705C996.554 725.705 996.243 725.752 995.979 725.846C995.722 725.934 995.505 726.065 995.329 726.241C995.159 726.417 995.03 726.631 994.942 726.883C994.86 727.135 994.813 727.422 994.802 727.744L994.292 727.586C994.292 726.971 994.354 726.405 994.477 725.89C994.6 725.368 994.778 724.914 995.013 724.527C995.253 724.141 995.546 723.842 995.892 723.631C996.237 723.42 996.633 723.314 997.078 723.314C997.219 723.314 997.362 723.326 997.509 723.35C997.655 723.367 997.775 723.394 997.869 723.429ZM1003.27 733.176C1002.53 733.176 1001.87 733.059 1001.28 732.824C1000.69 732.584 1000.2 732.253 999.785 731.831C999.381 731.409 999.07 730.92 998.854 730.363C998.637 729.801 998.528 729.203 998.528 728.57V728.219C998.528 727.498 998.631 726.839 998.836 726.241C999.041 725.644 999.334 725.125 999.715 724.686C1000.1 724.246 1000.57 723.909 1001.12 723.675C1001.67 723.435 1002.29 723.314 1002.98 723.314C1003.66 723.314 1004.26 723.426 1004.78 723.648C1005.3 723.871 1005.74 724.188 1006.09 724.598C1006.44 725.008 1006.71 725.5 1006.9 726.074C1007.08 726.643 1007.17 727.275 1007.17 727.973V729.027H999.609V727.34H1004.68V727.146C1004.68 726.795 1004.62 726.481 1004.49 726.206C1004.36 725.925 1004.18 725.702 1003.92 725.538C1003.67 725.374 1003.35 725.292 1002.96 725.292C1002.62 725.292 1002.34 725.365 1002.1 725.512C1001.86 725.658 1001.66 725.863 1001.51 726.127C1001.36 726.391 1001.25 726.701 1001.17 727.059C1001.1 727.41 1001.07 727.797 1001.07 728.219V728.57C1001.07 728.951 1001.12 729.303 1001.23 729.625C1001.34 729.947 1001.49 730.226 1001.69 730.46C1001.9 730.694 1002.14 730.876 1002.43 731.005C1002.72 731.134 1003.05 731.198 1003.42 731.198C1003.88 731.198 1004.31 731.11 1004.7 730.935C1005.1 730.753 1005.44 730.48 1005.73 730.117L1006.96 731.453C1006.76 731.74 1006.49 732.016 1006.14 732.279C1005.8 732.543 1005.39 732.76 1004.91 732.93C1004.43 733.094 1003.88 733.176 1003.27 733.176ZM1014.23 730.926V719.5H1016.77V733H1014.48L1014.23 730.926ZM1008.21 728.359V728.175C1008.21 727.448 1008.3 726.789 1008.46 726.197C1008.62 725.6 1008.86 725.087 1009.18 724.659C1009.5 724.231 1009.89 723.9 1010.35 723.666C1010.81 723.432 1011.34 723.314 1011.93 723.314C1012.49 723.314 1012.97 723.432 1013.39 723.666C1013.81 723.9 1014.17 724.234 1014.46 724.668C1014.76 725.096 1015 725.603 1015.18 726.188C1015.37 726.769 1015.5 727.404 1015.58 728.096V728.5C1015.5 729.162 1015.37 729.777 1015.18 730.346C1015 730.914 1014.76 731.412 1014.46 731.84C1014.17 732.262 1013.81 732.59 1013.39 732.824C1012.97 733.059 1012.48 733.176 1011.91 733.176C1011.32 733.176 1010.79 733.056 1010.33 732.815C1009.88 732.575 1009.49 732.238 1009.17 731.805C1008.86 731.371 1008.62 730.861 1008.46 730.275C1008.3 729.689 1008.21 729.051 1008.21 728.359ZM1010.75 728.175V728.359C1010.75 728.752 1010.77 729.118 1010.83 729.458C1010.9 729.798 1011 730.1 1011.14 730.363C1011.29 730.621 1011.47 730.823 1011.7 730.97C1011.94 731.11 1012.22 731.181 1012.56 731.181C1012.99 731.181 1013.35 731.084 1013.63 730.891C1013.91 730.691 1014.12 730.419 1014.27 730.073C1014.42 729.728 1014.51 729.329 1014.53 728.878V727.727C1014.52 727.357 1014.46 727.026 1014.38 726.733C1014.29 726.435 1014.17 726.18 1014.01 725.969C1013.85 725.758 1013.65 725.594 1013.41 725.477C1013.17 725.359 1012.9 725.301 1012.57 725.301C1012.25 725.301 1011.96 725.377 1011.73 725.529C1011.5 725.676 1011.3 725.878 1011.16 726.136C1011.02 726.394 1010.91 726.698 1010.84 727.05C1010.78 727.396 1010.75 727.771 1010.75 728.175Z" fill="#F2F2F2"/>
<rect y="756" width="540" height="324" fill="#1F1D19"/>
<rect x="358" y="931" width="160" height="136" rx="8" fill="#1F1D19"/>
<path d="M429.89 1007L432.122 994.203H433.713L431.48 1007H429.89ZM433.186 1007L435.427 994.203H437.018L434.776 1007H433.186ZM438.327 999.345H429.178V997.859H438.327V999.345ZM437.659 1003.4H428.519V1001.92H437.659V1003.4ZM445.719 994.177V1007H443.188V997.095L440.146 998.062V996.066L445.446 994.177H445.719ZM452.785 994.203V1007H450.148V994.203H452.785ZM457.883 999.67V1001.73H452.064V999.67H457.883ZM458.498 994.203V996.269H452.064V994.203H458.498ZM465.934 994.177V1007H463.402V997.095L460.361 998.062V996.066L465.661 994.177H465.934ZM474.292 1007H471.506L471.523 1004.94H474.292C474.983 1004.94 475.566 1004.79 476.041 1004.48C476.516 1004.16 476.873 1003.7 477.113 1003.1C477.359 1002.49 477.482 1001.76 477.482 1000.91V1000.29C477.482 999.629 477.412 999.052 477.271 998.554C477.137 998.056 476.935 997.637 476.665 997.297C476.396 996.957 476.064 996.702 475.672 996.532C475.279 996.356 474.828 996.269 474.318 996.269H471.453V994.203H474.318C475.174 994.203 475.956 994.35 476.665 994.643C477.38 994.93 477.998 995.343 478.52 995.882C479.041 996.421 479.442 997.065 479.724 997.815C480.011 998.56 480.154 999.389 480.154 1000.3V1000.91C480.154 1001.82 480.011 1002.65 479.724 1003.4C479.442 1004.15 479.041 1004.79 478.52 1005.33C478.004 1005.86 477.386 1006.28 476.665 1006.57C475.95 1006.86 475.159 1007 474.292 1007ZM473 994.203V1007H470.363V994.203H473ZM487.977 994.177V1007H485.445V997.095L482.404 998.062V996.066L487.704 994.177H487.977ZM493.936 1005.08H494.103C494.806 1005.08 495.409 1004.99 495.913 1004.82C496.423 1004.64 496.842 1004.39 497.17 1004.06C497.498 1003.74 497.741 1003.33 497.899 1002.86C498.058 1002.38 498.137 1001.83 498.137 1001.23V998.8C498.137 998.337 498.09 997.93 497.996 997.578C497.908 997.227 497.779 996.937 497.609 996.708C497.445 996.474 497.252 996.298 497.029 996.181C496.812 996.063 496.572 996.005 496.309 996.005C496.027 996.005 495.778 996.075 495.562 996.216C495.345 996.351 495.16 996.535 495.008 996.77C494.861 997.004 494.747 997.273 494.665 997.578C494.589 997.877 494.551 998.19 494.551 998.519C494.551 998.847 494.589 999.16 494.665 999.459C494.741 999.752 494.855 1000.01 495.008 1000.24C495.16 1000.46 495.351 1000.64 495.579 1000.78C495.808 1000.91 496.077 1000.97 496.388 1000.97C496.687 1000.97 496.953 1000.92 497.188 1000.8C497.428 1000.69 497.63 1000.53 497.794 1000.35C497.964 1000.16 498.093 999.951 498.181 999.723C498.274 999.494 498.321 999.263 498.321 999.028L499.156 999.485C499.156 999.896 499.068 1000.3 498.893 1000.7C498.717 1001.1 498.471 1001.46 498.154 1001.79C497.844 1002.11 497.483 1002.37 497.073 1002.56C496.663 1002.75 496.224 1002.85 495.755 1002.85C495.157 1002.85 494.627 1002.74 494.164 1002.53C493.701 1002.3 493.309 1002 492.986 1001.61C492.67 1001.22 492.43 1000.76 492.266 1000.24C492.102 999.72 492.02 999.154 492.02 998.545C492.02 997.924 492.119 997.341 492.318 996.796C492.523 996.251 492.813 995.771 493.188 995.354C493.569 994.938 494.023 994.613 494.551 994.379C495.084 994.139 495.676 994.019 496.326 994.019C496.977 994.019 497.568 994.145 498.102 994.396C498.635 994.648 499.092 995.006 499.473 995.469C499.854 995.926 500.146 996.474 500.352 997.112C500.562 997.751 500.668 998.46 500.668 999.239V1000.12C500.668 1000.95 500.577 1001.72 500.396 1002.44C500.22 1003.15 499.953 1003.8 499.596 1004.38C499.244 1004.96 498.805 1005.45 498.277 1005.86C497.756 1006.27 497.149 1006.58 496.458 1006.8C495.767 1007.01 494.993 1007.12 494.138 1007.12H493.936V1005.08Z" fill="#F2F2F2"/>
<path d="M430.729 1041.94V1044H423.918V1041.94H430.729ZM424.779 1031.2V1044H422.143V1031.2H424.779ZM429.842 1036.42V1038.42H423.918V1036.42H429.842ZM430.721 1031.2V1033.27H423.918V1031.2H430.721ZM434.641 1036.56V1044H432.109V1034.49H434.491L434.641 1036.56ZM437.506 1034.43L437.462 1036.78C437.339 1036.76 437.189 1036.74 437.014 1036.73C436.844 1036.71 436.688 1036.71 436.548 1036.71C436.19 1036.71 435.88 1036.75 435.616 1036.85C435.358 1036.93 435.142 1037.07 434.966 1037.24C434.796 1037.42 434.667 1037.63 434.579 1037.88C434.497 1038.13 434.45 1038.42 434.438 1038.74L433.929 1038.59C433.929 1037.97 433.99 1037.41 434.113 1036.89C434.236 1036.37 434.415 1035.91 434.649 1035.53C434.89 1035.14 435.183 1034.84 435.528 1034.63C435.874 1034.42 436.27 1034.31 436.715 1034.31C436.855 1034.31 436.999 1034.33 437.146 1034.35C437.292 1034.37 437.412 1034.39 437.506 1034.43ZM441.373 1034.49V1044H438.833V1034.49H441.373ZM438.675 1032.01C438.675 1031.64 438.804 1031.34 439.062 1031.1C439.319 1030.86 439.665 1030.74 440.099 1030.74C440.526 1030.74 440.869 1030.86 441.127 1031.1C441.391 1031.34 441.522 1031.64 441.522 1032.01C441.522 1032.38 441.391 1032.69 441.127 1032.93C440.869 1033.17 440.526 1033.29 440.099 1033.29C439.665 1033.29 439.319 1033.17 439.062 1032.93C438.804 1032.69 438.675 1032.38 438.675 1032.01ZM447.842 1044.18C447.104 1044.18 446.441 1044.06 445.855 1043.82C445.27 1043.58 444.771 1043.25 444.361 1042.83C443.957 1042.41 443.646 1041.92 443.43 1041.36C443.213 1040.8 443.104 1040.2 443.104 1039.57V1039.22C443.104 1038.5 443.207 1037.84 443.412 1037.24C443.617 1036.64 443.91 1036.12 444.291 1035.69C444.678 1035.25 445.146 1034.91 445.697 1034.67C446.248 1034.43 446.869 1034.31 447.561 1034.31C448.234 1034.31 448.832 1034.43 449.354 1034.65C449.875 1034.87 450.312 1035.19 450.663 1035.6C451.021 1036.01 451.29 1036.5 451.472 1037.07C451.653 1037.64 451.744 1038.28 451.744 1038.97V1040.03H444.186V1038.34H449.257V1038.15C449.257 1037.79 449.192 1037.48 449.063 1037.21C448.94 1036.92 448.753 1036.7 448.501 1036.54C448.249 1036.37 447.927 1036.29 447.534 1036.29C447.2 1036.29 446.913 1036.37 446.673 1036.51C446.433 1036.66 446.236 1036.86 446.084 1037.13C445.938 1037.39 445.826 1037.7 445.75 1038.06C445.68 1038.41 445.645 1038.8 445.645 1039.22V1039.57C445.645 1039.95 445.697 1040.3 445.803 1040.62C445.914 1040.95 446.069 1041.23 446.269 1041.46C446.474 1041.69 446.72 1041.88 447.007 1042C447.3 1042.13 447.631 1042.2 448 1042.2C448.457 1042.2 448.882 1042.11 449.274 1041.93C449.673 1041.75 450.016 1041.48 450.303 1041.12L451.533 1042.45C451.334 1042.74 451.062 1043.02 450.716 1043.28C450.376 1043.54 449.966 1043.76 449.485 1043.93C449.005 1044.09 448.457 1044.18 447.842 1044.18ZM462.836 1038.38H459.549L459.531 1036.57H462.291C462.777 1036.57 463.176 1036.51 463.486 1036.39C463.797 1036.26 464.028 1036.08 464.181 1035.83C464.339 1035.59 464.418 1035.29 464.418 1034.94C464.418 1034.54 464.342 1034.22 464.189 1033.97C464.043 1033.73 463.812 1033.55 463.495 1033.44C463.185 1033.32 462.783 1033.27 462.291 1033.27H460.463V1044H457.826V1031.2H462.291C463.035 1031.2 463.7 1031.27 464.286 1031.41C464.878 1031.55 465.379 1031.77 465.789 1032.06C466.199 1032.34 466.513 1032.71 466.729 1033.15C466.946 1033.58 467.055 1034.09 467.055 1034.69C467.055 1035.22 466.935 1035.71 466.694 1036.15C466.46 1036.6 466.088 1036.96 465.578 1037.24C465.074 1037.52 464.415 1037.68 463.601 1037.71L462.836 1038.38ZM462.722 1044H458.828L459.856 1041.94H462.722C463.185 1041.94 463.562 1041.87 463.855 1041.72C464.148 1041.57 464.365 1041.37 464.506 1041.11C464.646 1040.85 464.717 1040.55 464.717 1040.22C464.717 1039.85 464.652 1039.52 464.523 1039.25C464.4 1038.97 464.201 1038.76 463.926 1038.61C463.65 1038.46 463.287 1038.38 462.836 1038.38H460.296L460.313 1036.57H463.478L464.084 1037.29C464.863 1037.27 465.49 1037.41 465.965 1037.7C466.445 1037.98 466.794 1038.35 467.011 1038.8C467.233 1039.25 467.345 1039.73 467.345 1040.25C467.345 1041.07 467.166 1041.76 466.809 1042.32C466.451 1042.88 465.927 1043.3 465.235 1043.58C464.55 1043.86 463.712 1044 462.722 1044ZM471.836 1030.5V1044H469.296V1030.5H471.836ZM479.061 1041.86V1037.62C479.061 1037.31 479.011 1037.05 478.911 1036.84C478.812 1036.61 478.656 1036.44 478.445 1036.32C478.24 1036.2 477.974 1036.13 477.646 1036.13C477.364 1036.13 477.121 1036.18 476.916 1036.28C476.711 1036.38 476.553 1036.51 476.441 1036.7C476.33 1036.87 476.274 1037.08 476.274 1037.32H473.743C473.743 1036.92 473.837 1036.53 474.024 1036.17C474.212 1035.81 474.484 1035.49 474.842 1035.21C475.199 1034.93 475.624 1034.71 476.116 1034.55C476.614 1034.39 477.171 1034.31 477.786 1034.31C478.524 1034.31 479.181 1034.44 479.755 1034.68C480.329 1034.93 480.78 1035.3 481.108 1035.79C481.442 1036.28 481.609 1036.9 481.609 1037.64V1041.71C481.609 1042.23 481.642 1042.66 481.706 1042.99C481.771 1043.32 481.864 1043.6 481.987 1043.85V1044H479.43C479.307 1043.74 479.213 1043.42 479.148 1043.03C479.09 1042.64 479.061 1042.25 479.061 1041.86ZM479.395 1038.21L479.412 1039.64H477.997C477.663 1039.64 477.373 1039.68 477.127 1039.75C476.881 1039.83 476.679 1039.94 476.521 1040.08C476.362 1040.21 476.245 1040.37 476.169 1040.55C476.099 1040.74 476.063 1040.94 476.063 1041.15C476.063 1041.37 476.113 1041.57 476.213 1041.74C476.312 1041.91 476.456 1042.05 476.644 1042.15C476.831 1042.24 477.051 1042.29 477.303 1042.29C477.684 1042.29 478.015 1042.21 478.296 1042.06C478.577 1041.91 478.794 1041.72 478.946 1041.5C479.104 1041.27 479.187 1041.06 479.192 1040.86L479.86 1041.93C479.767 1042.17 479.638 1042.42 479.474 1042.68C479.315 1042.94 479.113 1043.18 478.867 1043.41C478.621 1043.63 478.325 1043.82 477.979 1043.96C477.634 1044.11 477.224 1044.18 476.749 1044.18C476.146 1044.18 475.598 1044.06 475.105 1043.82C474.619 1043.57 474.232 1043.23 473.945 1042.8C473.664 1042.37 473.523 1041.88 473.523 1041.33C473.523 1040.83 473.617 1040.39 473.805 1040C473.992 1039.61 474.268 1039.29 474.631 1039.03C475 1038.76 475.46 1038.55 476.011 1038.42C476.562 1038.28 477.2 1038.21 477.927 1038.21H479.395ZM487.489 1042.2C487.8 1042.2 488.075 1042.14 488.315 1042.02C488.556 1041.9 488.743 1041.73 488.878 1041.51C489.019 1041.29 489.092 1041.03 489.098 1040.73H491.479C491.474 1041.4 491.295 1041.99 490.943 1042.51C490.592 1043.03 490.12 1043.44 489.528 1043.74C488.937 1044.03 488.274 1044.18 487.542 1044.18C486.804 1044.18 486.159 1044.05 485.608 1043.81C485.063 1043.56 484.609 1043.22 484.246 1042.79C483.883 1042.35 483.61 1041.84 483.429 1041.26C483.247 1040.67 483.156 1040.04 483.156 1039.38V1039.12C483.156 1038.45 483.247 1037.82 483.429 1037.24C483.61 1036.66 483.883 1036.15 484.246 1035.71C484.609 1035.27 485.063 1034.93 485.608 1034.68C486.153 1034.44 486.792 1034.31 487.524 1034.31C488.304 1034.31 488.986 1034.46 489.572 1034.76C490.164 1035.06 490.627 1035.49 490.961 1036.05C491.301 1036.6 491.474 1037.25 491.479 1038.01H489.098C489.092 1037.69 489.024 1037.4 488.896 1037.14C488.772 1036.89 488.591 1036.68 488.351 1036.53C488.116 1036.37 487.826 1036.29 487.48 1036.29C487.111 1036.29 486.81 1036.37 486.575 1036.53C486.341 1036.68 486.159 1036.89 486.03 1037.16C485.901 1037.43 485.811 1037.73 485.758 1038.07C485.711 1038.4 485.688 1038.75 485.688 1039.12V1039.38C485.688 1039.75 485.711 1040.1 485.758 1040.44C485.805 1040.78 485.893 1041.08 486.021 1041.35C486.156 1041.61 486.341 1041.82 486.575 1041.97C486.81 1042.12 487.114 1042.2 487.489 1042.2ZM495.479 1030.49V1044H492.947V1030.49H495.479ZM501.473 1034.49L497.342 1039.2L495.127 1041.44L494.204 1039.61L495.962 1037.38L498.432 1034.49H501.473ZM498.845 1044L496.032 1039.61L497.781 1038.08L501.763 1044H498.845Z" fill="#F2F2F2"/>
<rect x="540" y="756" width="540" height="324" fill="#F2F2F2"/>
<rect x="874" y="931" width="160" height="136" rx="8" fill="#F2F2F2"/>
<path d="M947.89 1007L950.122 994.203H951.713L949.48 1007H947.89ZM951.186 1007L953.427 994.203H955.018L952.776 1007H951.186ZM956.327 999.345H947.178V997.859H956.327V999.345ZM955.659 1003.4H946.519V1001.92H955.659V1003.4ZM960.449 994.203V1007H957.812V994.203H960.449ZM965.547 999.67V1001.73H959.729V999.67H965.547ZM966.162 994.203V996.269H959.729V994.203H966.162ZM976.182 1005.02V1007H967.428V1005.31L971.567 1000.87C971.983 1000.41 972.312 1000 972.552 999.652C972.792 999.295 972.965 998.976 973.07 998.694C973.182 998.407 973.237 998.135 973.237 997.877C973.237 997.49 973.173 997.159 973.044 996.884C972.915 996.603 972.725 996.386 972.473 996.233C972.227 996.081 971.922 996.005 971.559 996.005C971.172 996.005 970.838 996.099 970.557 996.286C970.281 996.474 970.07 996.734 969.924 997.068C969.783 997.402 969.713 997.78 969.713 998.202H967.173C967.173 997.44 967.354 996.743 967.718 996.11C968.081 995.472 968.594 994.965 969.256 994.59C969.918 994.209 970.703 994.019 971.611 994.019C972.508 994.019 973.264 994.165 973.879 994.458C974.5 994.745 974.969 995.161 975.285 995.706C975.607 996.245 975.769 996.89 975.769 997.64C975.769 998.062 975.701 998.475 975.566 998.879C975.432 999.277 975.238 999.676 974.986 1000.07C974.74 1000.47 974.441 1000.87 974.09 1001.27C973.738 1001.67 973.349 1002.09 972.921 1002.53L970.697 1005.02H976.182ZM980.664 994.203V1007H978.027V994.203H980.664ZM985.762 999.67V1001.73H979.943V999.67H985.762ZM986.377 994.203V996.269H979.943V994.203H986.377ZM996.396 1005.02V1007H987.643V1005.31L991.782 1000.87C992.198 1000.41 992.526 1000 992.767 999.652C993.007 999.295 993.18 998.976 993.285 998.694C993.396 998.407 993.452 998.135 993.452 997.877C993.452 997.49 993.388 997.159 993.259 996.884C993.13 996.603 992.939 996.386 992.688 996.233C992.441 996.081 992.137 996.005 991.773 996.005C991.387 996.005 991.053 996.099 990.771 996.286C990.496 996.474 990.285 996.734 990.139 997.068C989.998 997.402 989.928 997.78 989.928 998.202H987.388C987.388 997.44 987.569 996.743 987.933 996.11C988.296 995.472 988.809 994.965 989.471 994.59C990.133 994.209 990.918 994.019 991.826 994.019C992.723 994.019 993.479 994.165 994.094 994.458C994.715 994.745 995.184 995.161 995.5 995.706C995.822 996.245 995.983 996.89 995.983 997.64C995.983 998.062 995.916 998.475 995.781 998.879C995.646 999.277 995.453 999.676 995.201 1000.07C994.955 1000.47 994.656 1000.87 994.305 1001.27C993.953 1001.67 993.563 1002.09 993.136 1002.53L990.912 1005.02H996.396ZM1000.88 994.203V1007H998.242V994.203H1000.88ZM1005.98 999.67V1001.73H1000.16V999.67H1005.98ZM1006.59 994.203V996.269H1000.16V994.203H1006.59ZM1016.61 1005.02V1007H1007.86V1005.31L1012 1000.87C1012.41 1000.41 1012.74 1000 1012.98 999.652C1013.22 999.295 1013.39 998.976 1013.5 998.694C1013.61 998.407 1013.67 998.135 1013.67 997.877C1013.67 997.49 1013.6 997.159 1013.47 996.884C1013.34 996.603 1013.15 996.386 1012.9 996.233C1012.66 996.081 1012.35 996.005 1011.99 996.005C1011.6 996.005 1011.27 996.099 1010.99 996.286C1010.71 996.474 1010.5 996.734 1010.35 997.068C1010.21 997.402 1010.14 997.78 1010.14 998.202H1007.6C1007.6 997.44 1007.78 996.743 1008.15 996.11C1008.51 995.472 1009.02 994.965 1009.69 994.59C1010.35 994.209 1011.13 994.019 1012.04 994.019C1012.94 994.019 1013.69 994.165 1014.31 994.458C1014.93 994.745 1015.4 995.161 1015.71 995.706C1016.04 996.245 1016.2 996.89 1016.2 997.64C1016.2 998.062 1016.13 998.475 1016 998.879C1015.86 999.277 1015.67 999.676 1015.42 1000.07C1015.17 1000.47 1014.87 1000.87 1014.52 1001.27C1014.17 1001.67 1013.78 1002.09 1013.35 1002.53L1011.13 1005.02H1016.61Z" fill="#EC0000"/>
<path d="M918.805 1040.65C918.805 1040.42 918.77 1040.22 918.699 1040.04C918.635 1039.85 918.512 1039.68 918.33 1039.53C918.148 1039.37 917.894 1039.21 917.565 1039.06C917.237 1038.91 916.812 1038.75 916.291 1038.59C915.711 1038.4 915.16 1038.19 914.639 1037.95C914.123 1037.72 913.666 1037.45 913.268 1037.14C912.875 1036.82 912.564 1036.45 912.336 1036.04C912.113 1035.62 912.002 1035.14 912.002 1034.59C912.002 1034.05 912.119 1033.57 912.354 1033.14C912.588 1032.7 912.916 1032.32 913.338 1032.01C913.76 1031.7 914.258 1031.45 914.832 1031.28C915.412 1031.11 916.048 1031.03 916.739 1031.03C917.683 1031.03 918.506 1031.2 919.209 1031.54C919.912 1031.88 920.457 1032.34 920.844 1032.93C921.236 1033.53 921.433 1034.2 921.433 1034.96H918.813C918.813 1034.59 918.734 1034.26 918.576 1033.98C918.424 1033.69 918.189 1033.47 917.873 1033.3C917.562 1033.14 917.17 1033.06 916.695 1033.06C916.238 1033.06 915.857 1033.13 915.553 1033.27C915.248 1033.4 915.02 1033.59 914.867 1033.82C914.715 1034.05 914.639 1034.31 914.639 1034.6C914.639 1034.81 914.691 1035.01 914.797 1035.18C914.908 1035.36 915.072 1035.52 915.289 1035.68C915.506 1035.83 915.772 1035.97 916.089 1036.11C916.405 1036.24 916.771 1036.37 917.188 1036.5C917.885 1036.71 918.497 1036.95 919.024 1037.21C919.558 1037.48 920.003 1037.77 920.36 1038.1C920.718 1038.43 920.987 1038.8 921.169 1039.22C921.351 1039.63 921.441 1040.11 921.441 1040.63C921.441 1041.19 921.333 1041.69 921.116 1042.13C920.899 1042.57 920.586 1042.94 920.176 1043.24C919.766 1043.55 919.276 1043.78 918.708 1043.94C918.14 1044.1 917.504 1044.18 916.801 1044.18C916.168 1044.18 915.544 1044.09 914.929 1043.93C914.313 1043.76 913.754 1043.5 913.25 1043.17C912.752 1042.83 912.354 1042.39 912.055 1041.86C911.756 1041.34 911.606 1040.71 911.606 1039.99H914.252C914.252 1040.39 914.313 1040.73 914.437 1041C914.56 1041.28 914.732 1041.5 914.955 1041.67C915.184 1041.84 915.453 1041.96 915.764 1042.04C916.08 1042.12 916.426 1042.15 916.801 1042.15C917.258 1042.15 917.633 1042.09 917.926 1041.96C918.225 1041.83 918.444 1041.65 918.585 1041.42C918.731 1041.2 918.805 1040.94 918.805 1040.65ZM925.607 1036.46V1044H923.067V1034.49H925.449L925.607 1036.46ZM925.256 1038.91H924.553C924.553 1038.25 924.632 1037.64 924.79 1037.08C924.954 1036.52 925.191 1036.03 925.502 1035.62C925.818 1035.21 926.208 1034.89 926.671 1034.66C927.134 1034.43 927.67 1034.31 928.279 1034.31C928.701 1034.31 929.088 1034.38 929.439 1034.51C929.791 1034.63 930.093 1034.83 930.345 1035.1C930.603 1035.36 930.802 1035.71 930.942 1036.13C931.083 1036.56 931.153 1037.06 931.153 1037.65V1044H928.622V1037.94C928.622 1037.5 928.563 1037.17 928.446 1036.93C928.329 1036.7 928.162 1036.54 927.945 1036.44C927.734 1036.35 927.479 1036.3 927.181 1036.3C926.853 1036.3 926.565 1036.37 926.319 1036.5C926.079 1036.64 925.88 1036.83 925.722 1037.07C925.563 1037.3 925.446 1037.58 925.37 1037.89C925.294 1038.21 925.256 1038.55 925.256 1038.91ZM930.916 1038.62L930.011 1038.74C930.011 1038.11 930.087 1037.54 930.239 1037C930.397 1036.47 930.629 1036 930.934 1035.6C931.244 1035.19 931.628 1034.88 932.085 1034.66C932.542 1034.43 933.069 1034.31 933.667 1034.31C934.124 1034.31 934.54 1034.38 934.915 1034.52C935.29 1034.65 935.609 1034.85 935.873 1035.14C936.143 1035.42 936.348 1035.79 936.488 1036.25C936.635 1036.71 936.708 1037.26 936.708 1037.93V1044H934.168V1037.93C934.168 1037.49 934.109 1037.15 933.992 1036.92C933.881 1036.69 933.717 1036.53 933.5 1036.44C933.289 1036.35 933.037 1036.3 932.744 1036.3C932.439 1036.3 932.173 1036.36 931.944 1036.49C931.716 1036.6 931.525 1036.77 931.373 1036.98C931.221 1037.19 931.106 1037.43 931.03 1037.72C930.954 1037.99 930.916 1038.29 930.916 1038.62ZM938.264 1039.34V1039.16C938.264 1038.46 938.363 1037.82 938.562 1037.23C938.762 1036.64 939.052 1036.13 939.433 1035.69C939.813 1035.26 940.282 1034.92 940.839 1034.68C941.396 1034.44 942.034 1034.31 942.755 1034.31C943.476 1034.31 944.117 1034.44 944.68 1034.68C945.242 1034.92 945.714 1035.26 946.095 1035.69C946.481 1036.13 946.774 1036.64 946.974 1037.23C947.173 1037.82 947.272 1038.46 947.272 1039.16V1039.34C947.272 1040.03 947.173 1040.67 946.974 1041.27C946.774 1041.85 946.481 1042.37 946.095 1042.8C945.714 1043.24 945.245 1043.58 944.688 1043.82C944.132 1044.06 943.493 1044.18 942.772 1044.18C942.052 1044.18 941.41 1044.06 940.848 1043.82C940.291 1043.58 939.819 1043.24 939.433 1042.8C939.052 1042.37 938.762 1041.85 938.562 1041.27C938.363 1040.67 938.264 1040.03 938.264 1039.34ZM940.795 1039.16V1039.34C940.795 1039.74 940.83 1040.11 940.9 1040.46C940.971 1040.8 941.082 1041.11 941.234 1041.37C941.393 1041.63 941.598 1041.83 941.85 1041.98C942.102 1042.12 942.409 1042.2 942.772 1042.2C943.124 1042.2 943.426 1042.12 943.678 1041.98C943.93 1041.83 944.132 1041.63 944.284 1041.37C944.437 1041.11 944.548 1040.8 944.618 1040.46C944.694 1040.11 944.732 1039.74 944.732 1039.34V1039.16C944.732 1038.77 944.694 1038.41 944.618 1038.07C944.548 1037.72 944.434 1037.42 944.275 1037.15C944.123 1036.88 943.921 1036.67 943.669 1036.52C943.417 1036.37 943.112 1036.29 942.755 1036.29C942.397 1036.29 942.093 1036.37 941.841 1036.52C941.595 1036.67 941.393 1036.88 941.234 1037.15C941.082 1037.42 940.971 1037.72 940.9 1038.07C940.83 1038.41 940.795 1038.77 940.795 1039.16ZM951.359 1030.49V1044H948.828V1030.49H951.359ZM957.354 1034.49L953.223 1039.2L951.008 1041.44L950.085 1039.61L951.843 1037.38L954.312 1034.49H957.354ZM954.726 1044L951.913 1039.61L953.662 1038.08L957.644 1044H954.726ZM962.645 1044.18C961.906 1044.18 961.244 1044.06 960.658 1043.82C960.072 1043.58 959.574 1043.25 959.164 1042.83C958.76 1042.41 958.449 1041.92 958.232 1041.36C958.016 1040.8 957.907 1040.2 957.907 1039.57V1039.22C957.907 1038.5 958.01 1037.84 958.215 1037.24C958.42 1036.64 958.713 1036.12 959.094 1035.69C959.48 1035.25 959.949 1034.91 960.5 1034.67C961.051 1034.43 961.672 1034.31 962.363 1034.31C963.037 1034.31 963.635 1034.43 964.156 1034.65C964.678 1034.87 965.114 1035.19 965.466 1035.6C965.823 1036.01 966.093 1036.5 966.274 1037.07C966.456 1037.64 966.547 1038.28 966.547 1038.97V1040.03H958.988V1038.34H964.06V1038.15C964.06 1037.79 963.995 1037.48 963.866 1037.21C963.743 1036.92 963.556 1036.7 963.304 1036.54C963.052 1036.37 962.729 1036.29 962.337 1036.29C962.003 1036.29 961.716 1036.37 961.476 1036.51C961.235 1036.66 961.039 1036.86 960.887 1037.13C960.74 1037.39 960.629 1037.7 960.553 1038.06C960.482 1038.41 960.447 1038.8 960.447 1039.22V1039.57C960.447 1039.95 960.5 1040.3 960.605 1040.62C960.717 1040.95 960.872 1041.23 961.071 1041.46C961.276 1041.69 961.522 1041.88 961.81 1042C962.103 1042.13 962.434 1042.2 962.803 1042.2C963.26 1042.2 963.685 1042.11 964.077 1041.93C964.476 1041.75 964.818 1041.48 965.105 1041.12L966.336 1042.45C966.137 1042.74 965.864 1043.02 965.519 1043.28C965.179 1043.54 964.769 1043.76 964.288 1043.93C963.808 1044.09 963.26 1044.18 962.645 1044.18ZM975.714 1041.97L978.263 1031.2H979.687L980.012 1033L977.296 1044H975.767L975.714 1041.97ZM974.404 1031.2L976.514 1041.97L976.338 1044H974.633L971.794 1031.2H974.404ZM982.253 1041.93L984.336 1031.2H986.946L984.116 1044H982.411L982.253 1041.93ZM980.486 1031.2L983.053 1042.01L982.982 1044H981.453L978.72 1032.99L979.071 1031.2H980.486ZM990.69 1030.5V1044H988.159V1030.5H990.69ZM990.33 1038.91H989.636C989.642 1038.25 989.729 1037.64 989.899 1037.08C990.069 1036.52 990.312 1036.03 990.629 1035.62C990.945 1035.21 991.323 1034.89 991.763 1034.66C992.208 1034.43 992.7 1034.31 993.239 1034.31C993.708 1034.31 994.133 1034.38 994.514 1034.52C994.9 1034.65 995.231 1034.86 995.507 1035.15C995.788 1035.44 996.005 1035.81 996.157 1036.28C996.31 1036.75 996.386 1037.32 996.386 1037.99V1044H993.837V1037.97C993.837 1037.55 993.775 1037.22 993.652 1036.98C993.535 1036.73 993.362 1036.56 993.134 1036.46C992.911 1036.35 992.636 1036.3 992.308 1036.3C991.944 1036.3 991.634 1036.37 991.376 1036.5C991.124 1036.64 990.922 1036.83 990.77 1037.07C990.617 1037.3 990.506 1037.58 990.436 1037.89C990.365 1038.21 990.33 1038.55 990.33 1038.91ZM1000.98 1034.49V1044H998.442V1034.49H1000.98ZM998.284 1032.01C998.284 1031.64 998.413 1031.34 998.671 1031.1C998.929 1030.86 999.274 1030.74 999.708 1030.74C1000.14 1030.74 1000.48 1030.86 1000.74 1031.1C1001 1031.34 1001.13 1031.64 1001.13 1032.01C1001.13 1032.38 1001 1032.69 1000.74 1032.93C1000.48 1033.17 1000.14 1033.29 999.708 1033.29C999.274 1033.29 998.929 1033.17 998.671 1032.93C998.413 1032.69 998.284 1032.38 998.284 1032.01ZM1007.73 1034.49V1036.28H1002.2V1034.49H1007.73ZM1003.57 1032.14H1006.1V1041.13C1006.1 1041.41 1006.13 1041.62 1006.2 1041.77C1006.28 1041.91 1006.39 1042.02 1006.54 1042.08C1006.68 1042.13 1006.87 1042.15 1007.09 1042.15C1007.25 1042.15 1007.39 1042.15 1007.51 1042.14C1007.64 1042.12 1007.75 1042.1 1007.84 1042.08L1007.85 1043.95C1007.63 1044.02 1007.4 1044.07 1007.14 1044.11C1006.89 1044.16 1006.61 1044.18 1006.31 1044.18C1005.75 1044.18 1005.27 1044.08 1004.85 1043.9C1004.44 1043.72 1004.12 1043.42 1003.9 1043.01C1003.68 1042.6 1003.57 1042.06 1003.57 1041.39V1032.14ZM1013.55 1044.18C1012.81 1044.18 1012.15 1044.06 1011.56 1043.82C1010.98 1043.58 1010.48 1043.25 1010.07 1042.83C1009.67 1042.41 1009.36 1041.92 1009.14 1041.36C1008.92 1040.8 1008.81 1040.2 1008.81 1039.57V1039.22C1008.81 1038.5 1008.92 1037.84 1009.12 1037.24C1009.33 1036.64 1009.62 1036.12 1010 1035.69C1010.39 1035.25 1010.86 1034.91 1011.41 1034.67C1011.96 1034.43 1012.58 1034.31 1013.27 1034.31C1013.94 1034.31 1014.54 1034.43 1015.06 1034.65C1015.58 1034.87 1016.02 1035.19 1016.37 1035.6C1016.73 1036.01 1017 1036.5 1017.18 1037.07C1017.36 1037.64 1017.45 1038.28 1017.45 1038.97V1040.03H1009.89V1038.34H1014.97V1038.15C1014.97 1037.79 1014.9 1037.48 1014.77 1037.21C1014.65 1036.92 1014.46 1036.7 1014.21 1036.54C1013.96 1036.37 1013.64 1036.29 1013.24 1036.29C1012.91 1036.29 1012.62 1036.37 1012.38 1036.51C1012.14 1036.66 1011.95 1036.86 1011.79 1037.13C1011.65 1037.39 1011.54 1037.7 1011.46 1038.06C1011.39 1038.41 1011.35 1038.8 1011.35 1039.22V1039.57C1011.35 1039.95 1011.41 1040.3 1011.51 1040.62C1011.62 1040.95 1011.78 1041.23 1011.98 1041.46C1012.18 1041.69 1012.43 1041.88 1012.72 1042C1013.01 1042.13 1013.34 1042.2 1013.71 1042.2C1014.17 1042.2 1014.59 1042.11 1014.98 1041.93C1015.38 1041.75 1015.72 1041.48 1016.01 1041.12L1017.24 1042.45C1017.04 1042.74 1016.77 1043.02 1016.42 1043.28C1016.08 1043.54 1015.67 1043.76 1015.19 1043.93C1014.71 1044.09 1014.17 1044.18 1013.55 1044.18Z" fill="#EC0000"/>
</g>
<defs>
<clipPath id="clip0_7352_3166">
<rect width="1080" height="1080" fill="white"/>
</clipPath>
</defs>
</svg>
