<svg width="1080" height="1080" viewBox="0 0 1080 1080" fill="none" xmlns="http://www.w3.org/2000/svg">
<g clip-path="url(#clip0_8509_1507)">
<rect width="1080" height="1080" fill="white"/>
<rect width="1080" height="756" fill="#007C62"/>
<rect x="874" y="620" width="160" height="136" rx="8" fill="#007C62"/>
<path d="M944.89 696L947.122 683.203H948.713L946.48 696H944.89ZM948.186 696L950.427 683.203H952.018L949.776 696H948.186ZM953.327 688.345H944.178V686.859H953.327V688.345ZM952.659 692.396H943.519V690.92H952.659V692.396ZM963.162 688.477V690.691C963.162 691.652 963.06 692.481 962.854 693.179C962.649 693.87 962.354 694.438 961.967 694.884C961.586 695.323 961.132 695.648 960.604 695.859C960.077 696.07 959.491 696.176 958.847 696.176C958.331 696.176 957.851 696.111 957.405 695.982C956.96 695.848 956.559 695.64 956.201 695.358C955.85 695.077 955.545 694.723 955.287 694.295C955.035 693.861 954.842 693.346 954.707 692.748C954.572 692.15 954.505 691.465 954.505 690.691V688.477C954.505 687.516 954.607 686.692 954.812 686.007C955.023 685.315 955.319 684.75 955.7 684.311C956.087 683.871 956.544 683.549 957.071 683.344C957.599 683.133 958.185 683.027 958.829 683.027C959.345 683.027 959.822 683.095 960.262 683.229C960.707 683.358 961.108 683.561 961.466 683.836C961.823 684.111 962.128 684.466 962.38 684.899C962.632 685.327 962.825 685.84 962.96 686.438C963.095 687.029 963.162 687.709 963.162 688.477ZM960.622 691.025V688.134C960.622 687.671 960.596 687.267 960.543 686.921C960.496 686.575 960.423 686.282 960.323 686.042C960.224 685.796 960.101 685.597 959.954 685.444C959.808 685.292 959.641 685.181 959.453 685.11C959.266 685.04 959.058 685.005 958.829 685.005C958.542 685.005 958.287 685.061 958.064 685.172C957.848 685.283 957.663 685.462 957.511 685.708C957.358 685.948 957.241 686.271 957.159 686.675C957.083 687.073 957.045 687.56 957.045 688.134V691.025C957.045 691.488 957.068 691.896 957.115 692.247C957.168 692.599 957.244 692.9 957.344 693.152C957.449 693.398 957.572 693.601 957.713 693.759C957.859 693.911 958.026 694.022 958.214 694.093C958.407 694.163 958.618 694.198 958.847 694.198C959.128 694.198 959.377 694.143 959.594 694.031C959.816 693.914 960.004 693.732 960.156 693.486C960.314 693.234 960.432 692.906 960.508 692.502C960.584 692.098 960.622 691.605 960.622 691.025ZM973.498 688.477V690.691C973.498 691.652 973.396 692.481 973.19 693.179C972.985 693.87 972.689 694.438 972.303 694.884C971.922 695.323 971.468 695.648 970.94 695.859C970.413 696.07 969.827 696.176 969.183 696.176C968.667 696.176 968.187 696.111 967.741 695.982C967.296 695.848 966.895 695.64 966.537 695.358C966.186 695.077 965.881 694.723 965.623 694.295C965.371 693.861 965.178 693.346 965.043 692.748C964.908 692.15 964.841 691.465 964.841 690.691V688.477C964.841 687.516 964.943 686.692 965.148 686.007C965.359 685.315 965.655 684.75 966.036 684.311C966.423 683.871 966.88 683.549 967.407 683.344C967.935 683.133 968.521 683.027 969.165 683.027C969.681 683.027 970.158 683.095 970.598 683.229C971.043 683.358 971.444 683.561 971.802 683.836C972.159 684.111 972.464 684.466 972.716 684.899C972.968 685.327 973.161 685.84 973.296 686.438C973.431 687.029 973.498 687.709 973.498 688.477ZM970.958 691.025V688.134C970.958 687.671 970.932 687.267 970.879 686.921C970.832 686.575 970.759 686.282 970.659 686.042C970.56 685.796 970.437 685.597 970.29 685.444C970.144 685.292 969.977 685.181 969.789 685.11C969.602 685.04 969.394 685.005 969.165 685.005C968.878 685.005 968.623 685.061 968.4 685.172C968.184 685.283 967.999 685.462 967.847 685.708C967.694 685.948 967.577 686.271 967.495 686.675C967.419 687.073 967.381 687.56 967.381 688.134V691.025C967.381 691.488 967.404 691.896 967.451 692.247C967.504 692.599 967.58 692.9 967.68 693.152C967.785 693.398 967.908 693.601 968.049 693.759C968.195 693.911 968.362 694.022 968.55 694.093C968.743 694.163 968.954 694.198 969.183 694.198C969.464 694.198 969.713 694.143 969.93 694.031C970.152 693.914 970.34 693.732 970.492 693.486C970.65 693.234 970.768 692.906 970.844 692.502C970.92 692.098 970.958 691.605 970.958 691.025ZM983.913 683.203V684.565L978.965 696H976.293L981.241 685.181H974.869V683.203H983.913ZM993.238 691.755H995.866C995.813 692.616 995.576 693.381 995.154 694.049C994.738 694.717 994.155 695.238 993.405 695.613C992.661 695.988 991.765 696.176 990.716 696.176C989.896 696.176 989.16 696.035 988.51 695.754C987.859 695.467 987.303 695.057 986.84 694.523C986.383 693.99 986.034 693.346 985.794 692.59C985.554 691.834 985.434 690.987 985.434 690.05V689.162C985.434 688.225 985.557 687.378 985.803 686.622C986.055 685.86 986.412 685.213 986.875 684.68C987.344 684.146 987.903 683.736 988.554 683.449C989.204 683.162 989.931 683.019 990.733 683.019C991.8 683.019 992.699 683.212 993.432 683.599C994.17 683.985 994.741 684.519 995.146 685.198C995.556 685.878 995.802 686.651 995.884 687.519H993.247C993.218 687.003 993.115 686.566 992.939 686.209C992.764 685.846 992.497 685.573 992.14 685.392C991.788 685.204 991.319 685.11 990.733 685.11C990.294 685.11 989.91 685.192 989.582 685.356C989.254 685.521 988.979 685.77 988.756 686.104C988.533 686.438 988.366 686.859 988.255 687.369C988.149 687.873 988.097 688.465 988.097 689.145V690.05C988.097 690.712 988.146 691.295 988.246 691.799C988.346 692.297 988.498 692.719 988.703 693.064C988.914 693.404 989.184 693.662 989.512 693.838C989.846 694.008 990.247 694.093 990.716 694.093C991.267 694.093 991.721 694.005 992.078 693.829C992.436 693.653 992.708 693.393 992.896 693.047C993.089 692.701 993.203 692.271 993.238 691.755ZM1003.86 683.071H1004.23V685.093H1004.08C1003.42 685.093 1002.82 685.192 1002.3 685.392C1001.78 685.591 1001.34 685.875 1000.97 686.244C1000.62 686.607 1000.34 687.047 1000.15 687.562C999.959 688.078 999.865 688.655 999.865 689.294V691.421C999.865 691.878 999.909 692.282 999.997 692.634C1000.09 692.979 1000.22 693.27 1000.39 693.504C1000.57 693.732 1000.77 693.905 1001.01 694.022C1001.24 694.134 1001.51 694.189 1001.8 694.189C1002.07 694.189 1002.32 694.131 1002.55 694.014C1002.77 693.896 1002.97 693.732 1003.13 693.521C1003.29 693.305 1003.41 693.053 1003.5 692.766C1003.58 692.473 1003.63 692.153 1003.63 691.808C1003.63 691.462 1003.58 691.143 1003.5 690.85C1003.41 690.557 1003.29 690.305 1003.13 690.094C1002.96 689.877 1002.76 689.71 1002.53 689.593C1002.29 689.476 1002.03 689.417 1001.74 689.417C1001.34 689.417 1000.99 689.511 1000.68 689.698C1000.38 689.88 1000.15 690.114 999.979 690.401C999.81 690.688 999.719 690.99 999.707 691.307L998.942 690.814C998.96 690.363 999.054 689.936 999.224 689.531C999.399 689.127 999.64 688.77 999.944 688.459C1000.25 688.143 1000.63 687.896 1001.06 687.721C1001.49 687.539 1001.98 687.448 1002.53 687.448C1003.13 687.448 1003.65 687.562 1004.1 687.791C1004.56 688.02 1004.94 688.333 1005.24 688.731C1005.55 689.13 1005.78 689.59 1005.93 690.111C1006.08 690.633 1006.16 691.189 1006.16 691.781C1006.16 692.402 1006.06 692.979 1005.85 693.513C1005.65 694.046 1005.36 694.512 1004.98 694.91C1004.61 695.309 1004.15 695.619 1003.63 695.842C1003.1 696.064 1002.51 696.176 1001.85 696.176C1001.17 696.176 1000.55 696.053 999.997 695.807C999.446 695.555 998.972 695.203 998.573 694.752C998.175 694.301 997.867 693.765 997.65 693.144C997.439 692.522 997.334 691.843 997.334 691.104V690.12C997.334 689.089 997.483 688.146 997.782 687.29C998.087 686.429 998.523 685.685 999.092 685.058C999.66 684.425 1000.35 683.936 1001.15 683.59C1001.95 683.244 1002.86 683.071 1003.86 683.071ZM1016.42 694.022V696H1007.67V694.312L1011.81 689.874C1012.23 689.411 1012.55 689.004 1012.79 688.652C1013.03 688.295 1013.21 687.976 1013.31 687.694C1013.42 687.407 1013.48 687.135 1013.48 686.877C1013.48 686.49 1013.42 686.159 1013.29 685.884C1013.16 685.603 1012.97 685.386 1012.71 685.233C1012.47 685.081 1012.16 685.005 1011.8 685.005C1011.41 685.005 1011.08 685.099 1010.8 685.286C1010.52 685.474 1010.31 685.734 1010.17 686.068C1010.03 686.402 1009.96 686.78 1009.96 687.202H1007.42C1007.42 686.44 1007.6 685.743 1007.96 685.11C1008.32 684.472 1008.84 683.965 1009.5 683.59C1010.16 683.209 1010.95 683.019 1011.85 683.019C1012.75 683.019 1013.51 683.165 1014.12 683.458C1014.74 683.745 1015.21 684.161 1015.53 684.706C1015.85 685.245 1016.01 685.89 1016.01 686.64C1016.01 687.062 1015.94 687.475 1015.81 687.879C1015.67 688.277 1015.48 688.676 1015.23 689.074C1014.98 689.467 1014.68 689.865 1014.33 690.27C1013.98 690.674 1013.59 691.093 1013.16 691.526L1010.94 694.022H1016.42Z" fill="#F2F2F2"/>
<path d="M930.285 726.312V731.383C930.086 731.623 929.778 731.884 929.362 732.165C928.946 732.44 928.41 732.678 927.754 732.877C927.098 733.076 926.304 733.176 925.372 733.176C924.546 733.176 923.793 733.041 923.113 732.771C922.434 732.496 921.848 732.095 921.355 731.567C920.869 731.04 920.494 730.396 920.23 729.634C919.967 728.866 919.835 727.99 919.835 727.006V726.206C919.835 725.222 919.961 724.346 920.213 723.578C920.471 722.811 920.837 722.163 921.312 721.636C921.786 721.108 922.352 720.707 923.008 720.432C923.664 720.156 924.394 720.019 925.196 720.019C926.31 720.019 927.224 720.2 927.938 720.563C928.653 720.921 929.198 721.419 929.573 722.058C929.954 722.69 930.188 723.417 930.276 724.237H927.719C927.654 723.804 927.531 723.426 927.35 723.104C927.168 722.781 926.907 722.529 926.567 722.348C926.233 722.166 925.8 722.075 925.267 722.075C924.827 722.075 924.435 722.166 924.089 722.348C923.749 722.523 923.462 722.784 923.228 723.13C922.993 723.476 922.814 723.903 922.691 724.413C922.568 724.923 922.507 725.515 922.507 726.188V727.006C922.507 727.674 922.571 728.266 922.7 728.781C922.829 729.291 923.02 729.722 923.271 730.073C923.529 730.419 923.846 730.68 924.221 730.855C924.596 731.031 925.032 731.119 925.53 731.119C925.946 731.119 926.292 731.084 926.567 731.014C926.849 730.943 927.074 730.858 927.244 730.759C927.42 730.653 927.555 730.554 927.648 730.46V728.192H925.24V726.312H930.285ZM931.85 728.342V728.157C931.85 727.46 931.949 726.818 932.148 726.232C932.348 725.641 932.638 725.128 933.019 724.694C933.399 724.261 933.868 723.924 934.425 723.684C934.981 723.438 935.62 723.314 936.341 723.314C937.062 723.314 937.703 723.438 938.266 723.684C938.828 723.924 939.3 724.261 939.681 724.694C940.067 725.128 940.36 725.641 940.56 726.232C940.759 726.818 940.858 727.46 940.858 728.157V728.342C940.858 729.033 940.759 729.675 940.56 730.267C940.36 730.853 940.067 731.365 939.681 731.805C939.3 732.238 938.831 732.575 938.274 732.815C937.718 733.056 937.079 733.176 936.358 733.176C935.638 733.176 934.996 733.056 934.434 732.815C933.877 732.575 933.405 732.238 933.019 731.805C932.638 731.365 932.348 730.853 932.148 730.267C931.949 729.675 931.85 729.033 931.85 728.342ZM934.381 728.157V728.342C934.381 728.74 934.416 729.112 934.486 729.458C934.557 729.804 934.668 730.108 934.82 730.372C934.979 730.63 935.184 730.832 935.436 730.979C935.688 731.125 935.995 731.198 936.358 731.198C936.71 731.198 937.012 731.125 937.264 730.979C937.516 730.832 937.718 730.63 937.87 730.372C938.022 730.108 938.134 729.804 938.204 729.458C938.28 729.112 938.318 728.74 938.318 728.342V728.157C938.318 727.771 938.28 727.407 938.204 727.067C938.134 726.722 938.02 726.417 937.861 726.153C937.709 725.884 937.507 725.673 937.255 725.521C937.003 725.368 936.698 725.292 936.341 725.292C935.983 725.292 935.679 725.368 935.427 725.521C935.181 725.673 934.979 725.884 934.82 726.153C934.668 726.417 934.557 726.722 934.486 727.067C934.416 727.407 934.381 727.771 934.381 728.157ZM945.086 719.5V733H942.546V719.5H945.086ZM950.342 733H947.802V723.06C947.802 722.251 947.966 721.568 948.294 721.012C948.628 720.455 949.103 720.033 949.718 719.746C950.339 719.459 951.089 719.315 951.968 719.315C952.466 719.315 952.949 719.365 953.418 719.465C953.887 719.559 954.37 719.682 954.868 719.834L954.499 721.864C954.177 721.765 953.831 721.671 953.462 721.583C953.093 721.495 952.647 721.451 952.126 721.451C951.54 721.451 951.095 721.589 950.79 721.864C950.491 722.134 950.342 722.532 950.342 723.06V733ZM952.231 723.49V725.283H946.387V723.49H952.231ZM956.046 723.49V733H953.506V723.49H956.046ZM962.541 733.176C961.803 733.176 961.141 733.059 960.555 732.824C959.969 732.584 959.471 732.253 959.061 731.831C958.656 731.409 958.346 730.92 958.129 730.363C957.912 729.801 957.804 729.203 957.804 728.57V728.219C957.804 727.498 957.906 726.839 958.111 726.241C958.316 725.644 958.609 725.125 958.99 724.686C959.377 724.246 959.846 723.909 960.396 723.675C960.947 723.435 961.568 723.314 962.26 723.314C962.934 723.314 963.531 723.426 964.053 723.648C964.574 723.871 965.011 724.188 965.362 724.598C965.72 725.008 965.989 725.5 966.171 726.074C966.353 726.643 966.443 727.275 966.443 727.973V729.027H958.885V727.34H963.956V727.146C963.956 726.795 963.892 726.481 963.763 726.206C963.64 725.925 963.452 725.702 963.2 725.538C962.948 725.374 962.626 725.292 962.233 725.292C961.899 725.292 961.612 725.365 961.372 725.512C961.132 725.658 960.936 725.863 960.783 726.127C960.637 726.391 960.525 726.701 960.449 727.059C960.379 727.41 960.344 727.797 960.344 728.219V728.57C960.344 728.951 960.396 729.303 960.502 729.625C960.613 729.947 960.769 730.226 960.968 730.46C961.173 730.694 961.419 730.876 961.706 731.005C961.999 731.134 962.33 731.198 962.699 731.198C963.156 731.198 963.581 731.11 963.974 730.935C964.372 730.753 964.715 730.48 965.002 730.117L966.232 731.453C966.033 731.74 965.761 732.016 965.415 732.279C965.075 732.543 964.665 732.76 964.185 732.93C963.704 733.094 963.156 733.176 962.541 733.176ZM978.388 723.49H980.682V732.684C980.682 733.551 980.488 734.286 980.102 734.89C979.721 735.499 979.188 735.959 978.502 736.27C977.816 736.586 977.02 736.744 976.111 736.744C975.713 736.744 975.291 736.691 974.846 736.586C974.406 736.48 973.984 736.316 973.58 736.094C973.182 735.871 972.848 735.59 972.578 735.25L973.694 733.756C973.987 734.096 974.327 734.359 974.714 734.547C975.101 734.74 975.528 734.837 975.997 734.837C976.454 734.837 976.841 734.752 977.157 734.582C977.474 734.418 977.717 734.175 977.887 733.853C978.057 733.536 978.142 733.152 978.142 732.701V725.688L978.388 723.49ZM971.989 728.359V728.175C971.989 727.448 972.077 726.789 972.253 726.197C972.435 725.6 972.689 725.087 973.018 724.659C973.352 724.231 973.756 723.9 974.23 723.666C974.705 723.432 975.241 723.314 975.839 723.314C976.472 723.314 977.002 723.432 977.43 723.666C977.857 723.9 978.209 724.234 978.484 724.668C978.76 725.096 978.974 725.603 979.126 726.188C979.284 726.769 979.407 727.404 979.495 728.096V728.5C979.407 729.162 979.275 729.777 979.1 730.346C978.924 730.914 978.692 731.412 978.405 731.84C978.118 732.262 977.761 732.59 977.333 732.824C976.911 733.059 976.407 733.176 975.821 733.176C975.235 733.176 974.705 733.056 974.23 732.815C973.762 732.575 973.36 732.238 973.026 731.805C972.692 731.371 972.435 730.861 972.253 730.275C972.077 729.689 971.989 729.051 971.989 728.359ZM974.521 728.175V728.359C974.521 728.752 974.559 729.118 974.635 729.458C974.711 729.798 974.828 730.1 974.986 730.363C975.15 730.621 975.353 730.823 975.593 730.97C975.839 731.11 976.129 731.181 976.463 731.181C976.926 731.181 977.304 731.084 977.597 730.891C977.89 730.691 978.109 730.419 978.256 730.073C978.402 729.728 978.487 729.329 978.511 728.878V727.727C978.499 727.357 978.449 727.026 978.361 726.733C978.273 726.435 978.15 726.18 977.992 725.969C977.834 725.758 977.629 725.594 977.377 725.477C977.125 725.359 976.826 725.301 976.48 725.301C976.146 725.301 975.856 725.377 975.61 725.529C975.37 725.676 975.168 725.878 975.004 726.136C974.846 726.394 974.726 726.698 974.644 727.05C974.562 727.396 974.521 727.771 974.521 728.175ZM985.182 725.564V733H982.65V723.49H985.032L985.182 725.564ZM988.047 723.429L988.003 725.775C987.88 725.758 987.73 725.743 987.555 725.731C987.385 725.714 987.229 725.705 987.089 725.705C986.731 725.705 986.421 725.752 986.157 725.846C985.899 725.934 985.683 726.065 985.507 726.241C985.337 726.417 985.208 726.631 985.12 726.883C985.038 727.135 984.991 727.422 984.979 727.744L984.47 727.586C984.47 726.971 984.531 726.405 984.654 725.89C984.777 725.368 984.956 724.914 985.19 724.527C985.431 724.141 985.724 723.842 986.069 723.631C986.415 723.42 986.811 723.314 987.256 723.314C987.396 723.314 987.54 723.326 987.687 723.35C987.833 723.367 987.953 723.394 988.047 723.429ZM993.443 733.176C992.705 733.176 992.043 733.059 991.457 732.824C990.871 732.584 990.373 732.253 989.963 731.831C989.559 731.409 989.248 730.92 989.031 730.363C988.814 729.801 988.706 729.203 988.706 728.57V728.219C988.706 727.498 988.809 726.839 989.014 726.241C989.219 725.644 989.512 725.125 989.893 724.686C990.279 724.246 990.748 723.909 991.299 723.675C991.85 723.435 992.471 723.314 993.162 723.314C993.836 723.314 994.434 723.426 994.955 723.648C995.477 723.871 995.913 724.188 996.265 724.598C996.622 725.008 996.892 725.5 997.073 726.074C997.255 726.643 997.346 727.275 997.346 727.973V729.027H989.787V727.34H994.858V727.146C994.858 726.795 994.794 726.481 994.665 726.206C994.542 725.925 994.354 725.702 994.103 725.538C993.851 725.374 993.528 725.292 993.136 725.292C992.802 725.292 992.515 725.365 992.274 725.512C992.034 725.658 991.838 725.863 991.686 726.127C991.539 726.391 991.428 726.701 991.352 727.059C991.281 727.41 991.246 727.797 991.246 728.219V728.57C991.246 728.951 991.299 729.303 991.404 729.625C991.516 729.947 991.671 730.226 991.87 730.46C992.075 730.694 992.321 730.876 992.608 731.005C992.901 731.134 993.232 731.198 993.602 731.198C994.059 731.198 994.483 731.11 994.876 730.935C995.274 730.753 995.617 730.48 995.904 730.117L997.135 731.453C996.936 731.74 996.663 732.016 996.317 732.279C995.978 732.543 995.567 732.76 995.087 732.93C994.606 733.094 994.059 733.176 993.443 733.176ZM1003.16 733.176C1002.43 733.176 1001.76 733.059 1001.18 732.824C1000.59 732.584 1000.09 732.253 999.684 731.831C999.279 731.409 998.969 730.92 998.752 730.363C998.535 729.801 998.427 729.203 998.427 728.57V728.219C998.427 727.498 998.529 726.839 998.734 726.241C998.939 725.644 999.232 725.125 999.613 724.686C1000 724.246 1000.47 723.909 1001.02 723.675C1001.57 723.435 1002.19 723.314 1002.88 723.314C1003.56 723.314 1004.15 723.426 1004.68 723.648C1005.2 723.871 1005.63 724.188 1005.99 724.598C1006.34 725.008 1006.61 725.5 1006.79 726.074C1006.98 726.643 1007.07 727.275 1007.07 727.973V729.027H999.508V727.34H1004.58V727.146C1004.58 726.795 1004.51 726.481 1004.39 726.206C1004.26 725.925 1004.08 725.702 1003.82 725.538C1003.57 725.374 1003.25 725.292 1002.86 725.292C1002.52 725.292 1002.24 725.365 1002 725.512C1001.75 725.658 1001.56 725.863 1001.41 726.127C1001.26 726.391 1001.15 726.701 1001.07 727.059C1001 727.41 1000.97 727.797 1000.97 728.219V728.57C1000.97 728.951 1001.02 729.303 1001.12 729.625C1001.24 729.947 1001.39 730.226 1001.59 730.46C1001.8 730.694 1002.04 730.876 1002.33 731.005C1002.62 731.134 1002.95 731.198 1003.32 731.198C1003.78 731.198 1004.2 731.11 1004.6 730.935C1005 730.753 1005.34 730.48 1005.62 730.117L1006.86 731.453C1006.66 731.74 1006.38 732.016 1006.04 732.279C1005.7 732.543 1005.29 732.76 1004.81 732.93C1004.33 733.094 1003.78 733.176 1003.16 733.176ZM1010.99 725.521V733H1008.46V723.49H1010.83L1010.99 725.521ZM1010.62 727.911H1009.93C1009.93 727.208 1010.02 726.575 1010.2 726.013C1010.39 725.444 1010.64 724.961 1010.97 724.562C1011.3 724.158 1011.69 723.851 1012.14 723.64C1012.59 723.423 1013.1 723.314 1013.67 723.314C1014.11 723.314 1014.52 723.379 1014.89 723.508C1015.26 723.637 1015.57 723.842 1015.84 724.123C1016.11 724.404 1016.31 724.776 1016.45 725.239C1016.6 725.702 1016.67 726.268 1016.67 726.936V733H1014.12V726.927C1014.12 726.505 1014.07 726.177 1013.95 725.942C1013.83 725.708 1013.66 725.544 1013.43 725.45C1013.21 725.351 1012.93 725.301 1012.6 725.301C1012.26 725.301 1011.97 725.368 1011.72 725.503C1011.47 725.638 1011.26 725.825 1011.1 726.065C1010.94 726.3 1010.82 726.575 1010.74 726.892C1010.66 727.208 1010.62 727.548 1010.62 727.911Z" fill="#F2F2F2"/>
<rect y="756" width="540" height="324" fill="#262223"/>
<rect x="358" y="931" width="160" height="136" rx="8" fill="#262223"/>
<path d="M430.89 1007L433.122 994.203H434.713L432.48 1007H430.89ZM434.186 1007L436.427 994.203H438.018L435.776 1007H434.186ZM439.327 999.345H430.178V997.859H439.327V999.345ZM438.659 1003.4H429.519V1001.92H438.659V1003.4ZM449.303 1005.02V1007H440.549V1005.31L444.688 1000.87C445.104 1000.41 445.433 1000 445.673 999.652C445.913 999.295 446.086 998.976 446.191 998.694C446.303 998.407 446.358 998.135 446.358 997.877C446.358 997.49 446.294 997.159 446.165 996.884C446.036 996.603 445.846 996.386 445.594 996.233C445.348 996.081 445.043 996.005 444.68 996.005C444.293 996.005 443.959 996.099 443.678 996.286C443.402 996.474 443.191 996.734 443.045 997.068C442.904 997.402 442.834 997.78 442.834 998.202H440.294C440.294 997.44 440.476 996.743 440.839 996.11C441.202 995.472 441.715 994.965 442.377 994.59C443.039 994.209 443.824 994.019 444.732 994.019C445.629 994.019 446.385 994.165 447 994.458C447.621 994.745 448.09 995.161 448.406 995.706C448.729 996.245 448.89 996.89 448.89 997.64C448.89 998.062 448.822 998.475 448.688 998.879C448.553 999.277 448.359 999.676 448.107 1000.07C447.861 1000.47 447.562 1000.87 447.211 1001.27C446.859 1001.67 446.47 1002.09 446.042 1002.53L443.818 1005.02H449.303ZM457.415 994.071H457.784V996.093H457.635C456.967 996.093 456.372 996.192 455.851 996.392C455.329 996.591 454.887 996.875 454.523 997.244C454.166 997.607 453.891 998.047 453.697 998.562C453.51 999.078 453.416 999.655 453.416 1000.29V1002.42C453.416 1002.88 453.46 1003.28 453.548 1003.63C453.642 1003.98 453.773 1004.27 453.943 1004.5C454.119 1004.73 454.324 1004.91 454.559 1005.02C454.793 1005.13 455.057 1005.19 455.35 1005.19C455.625 1005.19 455.874 1005.13 456.097 1005.01C456.325 1004.9 456.519 1004.73 456.677 1004.52C456.841 1004.3 456.964 1004.05 457.046 1003.77C457.134 1003.47 457.178 1003.15 457.178 1002.81C457.178 1002.46 457.134 1002.14 457.046 1001.85C456.964 1001.56 456.841 1001.3 456.677 1001.09C456.513 1000.88 456.313 1000.71 456.079 1000.59C455.845 1000.48 455.581 1000.42 455.288 1000.42C454.89 1000.42 454.538 1000.51 454.233 1000.7C453.935 1000.88 453.7 1001.11 453.53 1001.4C453.36 1001.69 453.27 1001.99 453.258 1002.31L452.493 1001.81C452.511 1001.36 452.604 1000.94 452.774 1000.53C452.95 1000.13 453.19 999.77 453.495 999.459C453.806 999.143 454.178 998.896 454.611 998.721C455.045 998.539 455.534 998.448 456.079 998.448C456.677 998.448 457.201 998.562 457.652 998.791C458.109 999.02 458.49 999.333 458.795 999.731C459.1 1000.13 459.328 1000.59 459.48 1001.11C459.633 1001.63 459.709 1002.19 459.709 1002.78C459.709 1003.4 459.606 1003.98 459.401 1004.51C459.202 1005.05 458.912 1005.51 458.531 1005.91C458.156 1006.31 457.705 1006.62 457.178 1006.84C456.65 1007.06 456.059 1007.18 455.402 1007.18C454.723 1007.18 454.104 1007.05 453.548 1006.81C452.997 1006.55 452.522 1006.2 452.124 1005.75C451.726 1005.3 451.418 1004.76 451.201 1004.14C450.99 1003.52 450.885 1002.84 450.885 1002.1V1001.12C450.885 1000.09 451.034 999.146 451.333 998.29C451.638 997.429 452.074 996.685 452.643 996.058C453.211 995.425 453.896 994.936 454.699 994.59C455.502 994.244 456.407 994.071 457.415 994.071ZM469.975 1005.02V1007H461.221V1005.31L465.36 1000.87C465.776 1000.41 466.104 1000 466.345 999.652C466.585 999.295 466.758 998.976 466.863 998.694C466.975 998.407 467.03 998.135 467.03 997.877C467.03 997.49 466.966 997.159 466.837 996.884C466.708 996.603 466.518 996.386 466.266 996.233C466.02 996.081 465.715 996.005 465.352 996.005C464.965 996.005 464.631 996.099 464.35 996.286C464.074 996.474 463.863 996.734 463.717 997.068C463.576 997.402 463.506 997.78 463.506 998.202H460.966C460.966 997.44 461.147 996.743 461.511 996.11C461.874 995.472 462.387 994.965 463.049 994.59C463.711 994.209 464.496 994.019 465.404 994.019C466.301 994.019 467.057 994.165 467.672 994.458C468.293 994.745 468.762 995.161 469.078 995.706C469.4 996.245 469.562 996.89 469.562 997.64C469.562 998.062 469.494 998.475 469.359 998.879C469.225 999.277 469.031 999.676 468.779 1000.07C468.533 1000.47 468.234 1000.87 467.883 1001.27C467.531 1001.67 467.142 1002.09 466.714 1002.53L464.49 1005.02H469.975ZM480.311 1005.02V1007H471.557V1005.31L475.696 1000.87C476.112 1000.41 476.44 1000 476.681 999.652C476.921 999.295 477.094 998.976 477.199 998.694C477.311 998.407 477.366 998.135 477.366 997.877C477.366 997.49 477.302 997.159 477.173 996.884C477.044 996.603 476.854 996.386 476.602 996.233C476.355 996.081 476.051 996.005 475.688 996.005C475.301 996.005 474.967 996.099 474.686 996.286C474.41 996.474 474.199 996.734 474.053 997.068C473.912 997.402 473.842 997.78 473.842 998.202H471.302C471.302 997.44 471.483 996.743 471.847 996.11C472.21 995.472 472.723 994.965 473.385 994.59C474.047 994.209 474.832 994.019 475.74 994.019C476.637 994.019 477.393 994.165 478.008 994.458C478.629 994.745 479.098 995.161 479.414 995.706C479.736 996.245 479.897 996.89 479.897 997.64C479.897 998.062 479.83 998.475 479.695 998.879C479.561 999.277 479.367 999.676 479.115 1000.07C478.869 1000.47 478.57 1000.87 478.219 1001.27C477.867 1001.67 477.478 1002.09 477.05 1002.53L474.826 1005.02H480.311ZM490.646 1005.02V1007H481.893V1005.31L486.032 1000.87C486.448 1000.41 486.776 1000 487.017 999.652C487.257 999.295 487.43 998.976 487.535 998.694C487.646 998.407 487.702 998.135 487.702 997.877C487.702 997.49 487.638 997.159 487.509 996.884C487.38 996.603 487.189 996.386 486.938 996.233C486.691 996.081 486.387 996.005 486.023 996.005C485.637 996.005 485.303 996.099 485.021 996.286C484.746 996.474 484.535 996.734 484.389 997.068C484.248 997.402 484.178 997.78 484.178 998.202H481.638C481.638 997.44 481.819 996.743 482.183 996.11C482.546 995.472 483.059 994.965 483.721 994.59C484.383 994.209 485.168 994.019 486.076 994.019C486.973 994.019 487.729 994.165 488.344 994.458C488.965 994.745 489.434 995.161 489.75 995.706C490.072 996.245 490.233 996.89 490.233 997.64C490.233 998.062 490.166 998.475 490.031 998.879C489.896 999.277 489.703 999.676 489.451 1000.07C489.205 1000.47 488.906 1000.87 488.555 1001.27C488.203 1001.67 487.813 1002.09 487.386 1002.53L485.162 1005.02H490.646ZM494.821 999.503H496.175C496.608 999.503 496.966 999.43 497.247 999.283C497.528 999.131 497.736 998.92 497.871 998.65C498.012 998.375 498.082 998.056 498.082 997.692C498.082 997.364 498.018 997.074 497.889 996.822C497.766 996.564 497.575 996.365 497.317 996.225C497.06 996.078 496.734 996.005 496.342 996.005C496.031 996.005 495.744 996.066 495.48 996.189C495.217 996.312 495.006 996.485 494.848 996.708C494.689 996.931 494.61 997.2 494.61 997.517H492.07C492.07 996.813 492.258 996.201 492.633 995.68C493.014 995.158 493.523 994.751 494.162 994.458C494.801 994.165 495.504 994.019 496.271 994.019C497.139 994.019 497.897 994.159 498.548 994.44C499.198 994.716 499.705 995.123 500.068 995.662C500.432 996.201 500.613 996.869 500.613 997.666C500.613 998.07 500.52 998.463 500.332 998.844C500.145 999.219 499.875 999.559 499.523 999.863C499.178 1000.16 498.756 1000.4 498.258 1000.58C497.76 1000.76 497.2 1000.85 496.579 1000.85H494.821V999.503ZM494.821 1001.43V1000.12H496.579C497.276 1000.12 497.889 1000.2 498.416 1000.36C498.943 1000.51 499.386 1000.74 499.743 1001.04C500.101 1001.33 500.37 1001.68 500.552 1002.09C500.733 1002.49 500.824 1002.93 500.824 1003.41C500.824 1004.01 500.71 1004.54 500.481 1005.01C500.253 1005.48 499.931 1005.87 499.515 1006.19C499.104 1006.51 498.624 1006.76 498.073 1006.93C497.522 1007.09 496.922 1007.18 496.271 1007.18C495.732 1007.18 495.202 1007.1 494.681 1006.96C494.165 1006.8 493.696 1006.58 493.274 1006.28C492.858 1005.97 492.524 1005.59 492.272 1005.14C492.026 1004.67 491.903 1004.13 491.903 1003.49H494.443C494.443 1003.82 494.525 1004.11 494.689 1004.37C494.854 1004.63 495.079 1004.83 495.366 1004.98C495.659 1005.12 495.984 1005.2 496.342 1005.2C496.746 1005.2 497.092 1005.12 497.379 1004.98C497.672 1004.83 497.895 1004.62 498.047 1004.35C498.205 1004.07 498.284 1003.75 498.284 1003.39C498.284 1002.92 498.199 1002.54 498.029 1002.26C497.859 1001.98 497.616 1001.76 497.3 1001.63C496.983 1001.5 496.608 1001.43 496.175 1001.43H494.821Z" fill="#F2F2F2"/>
<path d="M426.152 1038.38H422.865L422.848 1036.57H425.607C426.094 1036.57 426.492 1036.51 426.803 1036.39C427.113 1036.26 427.345 1036.08 427.497 1035.83C427.655 1035.59 427.734 1035.29 427.734 1034.94C427.734 1034.54 427.658 1034.22 427.506 1033.97C427.359 1033.73 427.128 1033.55 426.812 1033.44C426.501 1033.32 426.1 1033.27 425.607 1033.27H423.779V1044H421.143V1031.2H425.607C426.352 1031.2 427.017 1031.27 427.603 1031.41C428.194 1031.55 428.695 1031.77 429.105 1032.06C429.516 1032.34 429.829 1032.71 430.046 1033.15C430.263 1033.58 430.371 1034.09 430.371 1034.69C430.371 1035.22 430.251 1035.71 430.011 1036.15C429.776 1036.6 429.404 1036.96 428.895 1037.24C428.391 1037.52 427.731 1037.68 426.917 1037.71L426.152 1038.38ZM426.038 1044H422.145L423.173 1041.94H426.038C426.501 1041.94 426.879 1041.87 427.172 1041.72C427.465 1041.57 427.682 1041.37 427.822 1041.11C427.963 1040.85 428.033 1040.55 428.033 1040.22C428.033 1039.85 427.969 1039.52 427.84 1039.25C427.717 1038.97 427.518 1038.76 427.242 1038.61C426.967 1038.46 426.604 1038.38 426.152 1038.38H423.612L423.63 1036.57H426.794L427.4 1037.29C428.18 1037.27 428.807 1037.41 429.281 1037.7C429.762 1037.98 430.11 1038.35 430.327 1038.8C430.55 1039.25 430.661 1039.73 430.661 1040.25C430.661 1041.07 430.482 1041.76 430.125 1042.32C429.768 1042.88 429.243 1043.3 428.552 1043.58C427.866 1043.86 427.028 1044 426.038 1044ZM435.152 1030.5V1044H432.612V1030.5H435.152ZM442.377 1041.86V1037.62C442.377 1037.31 442.327 1037.05 442.228 1036.84C442.128 1036.61 441.973 1036.44 441.762 1036.32C441.557 1036.2 441.29 1036.13 440.962 1036.13C440.681 1036.13 440.438 1036.18 440.232 1036.28C440.027 1036.38 439.869 1036.51 439.758 1036.7C439.646 1036.87 439.591 1037.08 439.591 1037.32H437.06C437.06 1036.92 437.153 1036.53 437.341 1036.17C437.528 1035.81 437.801 1035.49 438.158 1035.21C438.516 1034.93 438.94 1034.71 439.433 1034.55C439.931 1034.39 440.487 1034.31 441.103 1034.31C441.841 1034.31 442.497 1034.44 443.071 1034.68C443.646 1034.93 444.097 1035.3 444.425 1035.79C444.759 1036.28 444.926 1036.9 444.926 1037.64V1041.71C444.926 1042.23 444.958 1042.66 445.022 1042.99C445.087 1043.32 445.181 1043.6 445.304 1043.85V1044H442.746C442.623 1043.74 442.529 1043.42 442.465 1043.03C442.406 1042.64 442.377 1042.25 442.377 1041.86ZM442.711 1038.21L442.729 1039.64H441.313C440.979 1039.64 440.689 1039.68 440.443 1039.75C440.197 1039.83 439.995 1039.94 439.837 1040.08C439.679 1040.21 439.562 1040.37 439.485 1040.55C439.415 1040.74 439.38 1040.94 439.38 1041.15C439.38 1041.37 439.43 1041.57 439.529 1041.74C439.629 1041.91 439.772 1042.05 439.96 1042.15C440.147 1042.24 440.367 1042.29 440.619 1042.29C441 1042.29 441.331 1042.21 441.612 1042.06C441.894 1041.91 442.11 1041.72 442.263 1041.5C442.421 1041.27 442.503 1041.06 442.509 1040.86L443.177 1041.93C443.083 1042.17 442.954 1042.42 442.79 1042.68C442.632 1042.94 442.43 1043.18 442.184 1043.41C441.938 1043.63 441.642 1043.82 441.296 1043.96C440.95 1044.11 440.54 1044.18 440.065 1044.18C439.462 1044.18 438.914 1044.06 438.422 1043.82C437.936 1043.57 437.549 1043.23 437.262 1042.8C436.98 1042.37 436.84 1041.88 436.84 1041.33C436.84 1040.83 436.934 1040.39 437.121 1040C437.309 1039.61 437.584 1039.29 437.947 1039.03C438.316 1038.76 438.776 1038.55 439.327 1038.42C439.878 1038.28 440.517 1038.21 441.243 1038.21H442.711ZM450.806 1042.2C451.116 1042.2 451.392 1042.14 451.632 1042.02C451.872 1041.9 452.06 1041.73 452.194 1041.51C452.335 1041.29 452.408 1041.03 452.414 1040.73H454.796C454.79 1041.4 454.611 1041.99 454.26 1042.51C453.908 1043.03 453.437 1043.44 452.845 1043.74C452.253 1044.03 451.591 1044.18 450.858 1044.18C450.12 1044.18 449.476 1044.05 448.925 1043.81C448.38 1043.56 447.926 1043.22 447.562 1042.79C447.199 1042.35 446.927 1041.84 446.745 1041.26C446.563 1040.67 446.473 1040.04 446.473 1039.38V1039.12C446.473 1038.45 446.563 1037.82 446.745 1037.24C446.927 1036.66 447.199 1036.15 447.562 1035.71C447.926 1035.27 448.38 1034.93 448.925 1034.68C449.47 1034.44 450.108 1034.31 450.841 1034.31C451.62 1034.31 452.303 1034.46 452.889 1034.76C453.48 1035.06 453.943 1035.49 454.277 1036.05C454.617 1036.6 454.79 1037.25 454.796 1038.01H452.414C452.408 1037.69 452.341 1037.4 452.212 1037.14C452.089 1036.89 451.907 1036.68 451.667 1036.53C451.433 1036.37 451.143 1036.29 450.797 1036.29C450.428 1036.29 450.126 1036.37 449.892 1036.53C449.657 1036.68 449.476 1036.89 449.347 1037.16C449.218 1037.43 449.127 1037.73 449.074 1038.07C449.027 1038.4 449.004 1038.75 449.004 1039.12V1039.38C449.004 1039.75 449.027 1040.1 449.074 1040.44C449.121 1040.78 449.209 1041.08 449.338 1041.35C449.473 1041.61 449.657 1041.82 449.892 1041.97C450.126 1042.12 450.431 1042.2 450.806 1042.2ZM458.795 1030.49V1044H456.264V1030.49H458.795ZM464.789 1034.49L460.658 1039.2L458.443 1041.44L457.521 1039.61L459.278 1037.38L461.748 1034.49H464.789ZM462.161 1044L459.349 1039.61L461.098 1038.08L465.079 1044H462.161ZM476.382 1034.49H478.676V1043.68C478.676 1044.55 478.482 1045.29 478.096 1045.89C477.715 1046.5 477.182 1046.96 476.496 1047.27C475.811 1047.59 475.014 1047.74 474.105 1047.74C473.707 1047.74 473.285 1047.69 472.84 1047.59C472.4 1047.48 471.979 1047.32 471.574 1047.09C471.176 1046.87 470.842 1046.59 470.572 1046.25L471.688 1044.76C471.981 1045.1 472.321 1045.36 472.708 1045.55C473.095 1045.74 473.522 1045.84 473.991 1045.84C474.448 1045.84 474.835 1045.75 475.151 1045.58C475.468 1045.42 475.711 1045.17 475.881 1044.85C476.051 1044.54 476.136 1044.15 476.136 1043.7V1036.69L476.382 1034.49ZM469.983 1039.36V1039.17C469.983 1038.45 470.071 1037.79 470.247 1037.2C470.429 1036.6 470.684 1036.09 471.012 1035.66C471.346 1035.23 471.75 1034.9 472.225 1034.67C472.699 1034.43 473.235 1034.31 473.833 1034.31C474.466 1034.31 474.996 1034.43 475.424 1034.67C475.852 1034.9 476.203 1035.23 476.479 1035.67C476.754 1036.1 476.968 1036.6 477.12 1037.19C477.278 1037.77 477.401 1038.4 477.489 1039.1V1039.5C477.401 1040.16 477.27 1040.78 477.094 1041.35C476.918 1041.91 476.687 1042.41 476.399 1042.84C476.112 1043.26 475.755 1043.59 475.327 1043.82C474.905 1044.06 474.401 1044.18 473.815 1044.18C473.229 1044.18 472.699 1044.06 472.225 1043.82C471.756 1043.58 471.354 1043.24 471.021 1042.8C470.687 1042.37 470.429 1041.86 470.247 1041.28C470.071 1040.69 469.983 1040.05 469.983 1039.36ZM472.515 1039.17V1039.36C472.515 1039.75 472.553 1040.12 472.629 1040.46C472.705 1040.8 472.822 1041.1 472.98 1041.36C473.145 1041.62 473.347 1041.82 473.587 1041.97C473.833 1042.11 474.123 1042.18 474.457 1042.18C474.92 1042.18 475.298 1042.08 475.591 1041.89C475.884 1041.69 476.104 1041.42 476.25 1041.07C476.396 1040.73 476.481 1040.33 476.505 1039.88V1038.73C476.493 1038.36 476.443 1038.03 476.355 1037.73C476.268 1037.43 476.145 1037.18 475.986 1036.97C475.828 1036.76 475.623 1036.59 475.371 1036.48C475.119 1036.36 474.82 1036.3 474.475 1036.3C474.141 1036.3 473.851 1036.38 473.604 1036.53C473.364 1036.68 473.162 1036.88 472.998 1037.14C472.84 1037.39 472.72 1037.7 472.638 1038.05C472.556 1038.4 472.515 1038.77 472.515 1039.17ZM483.176 1036.56V1044H480.645V1034.49H483.026L483.176 1036.56ZM486.041 1034.43L485.997 1036.78C485.874 1036.76 485.725 1036.74 485.549 1036.73C485.379 1036.71 485.224 1036.71 485.083 1036.71C484.726 1036.71 484.415 1036.75 484.151 1036.85C483.894 1036.93 483.677 1037.07 483.501 1037.24C483.331 1037.42 483.202 1037.63 483.114 1037.88C483.032 1038.13 482.985 1038.42 482.974 1038.74L482.464 1038.59C482.464 1037.97 482.525 1037.41 482.648 1036.89C482.771 1036.37 482.95 1035.91 483.185 1035.53C483.425 1035.14 483.718 1034.84 484.063 1034.63C484.409 1034.42 484.805 1034.31 485.25 1034.31C485.391 1034.31 485.534 1034.33 485.681 1034.35C485.827 1034.37 485.947 1034.39 486.041 1034.43ZM489.908 1034.49V1044H487.368V1034.49H489.908ZM487.21 1032.01C487.21 1031.64 487.339 1031.34 487.597 1031.1C487.854 1030.86 488.2 1030.74 488.634 1030.74C489.062 1030.74 489.404 1030.86 489.662 1031.1C489.926 1031.34 490.058 1031.64 490.058 1032.01C490.058 1032.38 489.926 1032.69 489.662 1032.93C489.404 1033.17 489.062 1033.29 488.634 1033.29C488.2 1033.29 487.854 1033.17 487.597 1032.93C487.339 1032.69 487.21 1032.38 487.21 1032.01ZM494.531 1036.32V1047.66H492V1034.49H494.347L494.531 1036.32ZM500.552 1039.14V1039.32C500.552 1040.02 500.47 1040.66 500.306 1041.25C500.147 1041.84 499.913 1042.36 499.603 1042.8C499.292 1043.23 498.905 1043.57 498.442 1043.82C497.985 1044.06 497.458 1044.18 496.86 1044.18C496.28 1044.18 495.776 1044.06 495.349 1043.82C494.921 1043.59 494.561 1043.26 494.268 1042.84C493.98 1042.41 493.749 1041.92 493.573 1041.35C493.397 1040.79 493.263 1040.19 493.169 1039.54V1039.06C493.263 1038.37 493.397 1037.74 493.573 1037.16C493.749 1036.58 493.98 1036.08 494.268 1035.66C494.561 1035.23 494.918 1034.9 495.34 1034.67C495.768 1034.43 496.269 1034.31 496.843 1034.31C497.446 1034.31 497.977 1034.43 498.434 1034.66C498.896 1034.89 499.283 1035.21 499.594 1035.64C499.91 1036.07 500.147 1036.58 500.306 1037.17C500.47 1037.76 500.552 1038.42 500.552 1039.14ZM498.012 1039.32V1039.14C498.012 1038.74 497.977 1038.36 497.906 1038.02C497.842 1037.68 497.736 1037.38 497.59 1037.12C497.449 1036.86 497.262 1036.66 497.027 1036.52C496.799 1036.37 496.521 1036.3 496.192 1036.3C495.847 1036.3 495.551 1036.36 495.305 1036.47C495.064 1036.58 494.868 1036.74 494.716 1036.95C494.563 1037.16 494.449 1037.41 494.373 1037.71C494.297 1038 494.25 1038.33 494.232 1038.7V1039.92C494.262 1040.36 494.344 1040.75 494.479 1041.09C494.613 1041.43 494.821 1041.7 495.103 1041.9C495.384 1042.1 495.753 1042.2 496.21 1042.2C496.544 1042.2 496.825 1042.12 497.054 1041.98C497.282 1041.83 497.467 1041.62 497.607 1041.35C497.754 1041.09 497.856 1040.79 497.915 1040.44C497.979 1040.09 498.012 1039.72 498.012 1039.32Z" fill="#F2F2F2"/>
<rect x="540" y="756" width="540" height="324" fill="#FAFAFA"/>
<rect x="874" y="931" width="160" height="136" rx="8" fill="#FAFAFA"/>
<path d="M947.89 1007L950.122 994.203H951.713L949.48 1007H947.89ZM951.186 1007L953.427 994.203H955.018L952.776 1007H951.186ZM956.327 999.345H947.178V997.859H956.327V999.345ZM955.659 1003.4H946.519V1001.92H955.659V1003.4ZM960.449 994.203V1007H957.812V994.203H960.449ZM965.547 999.67V1001.73H959.729V999.67H965.547ZM966.162 994.203V996.269H959.729V994.203H966.162ZM971.277 996.392L967.797 1007H964.993L969.748 994.203H971.532L971.277 996.392ZM974.169 1007L970.68 996.392L970.398 994.203H972.2L976.981 1007H974.169ZM974.011 1002.24V1004.3H967.252V1002.24H974.011ZM980.805 994.203V1007H978.168V994.203H980.805ZM985.902 999.67V1001.73H980.084V999.67H985.902ZM986.518 994.203V996.269H980.084V994.203H986.518ZM991.633 996.392L988.152 1007H985.349L990.104 994.203H991.888L991.633 996.392ZM994.524 1007L991.035 996.392L990.754 994.203H992.556L997.337 1007H994.524ZM994.366 1002.24V1004.3H987.607V1002.24H994.366ZM1001.16 994.203V1007H998.523V994.203H1001.16ZM1006.26 999.67V1001.73H1000.44V999.67H1006.26ZM1006.87 994.203V996.269H1000.44V994.203H1006.87ZM1011.99 996.392L1008.51 1007H1005.7L1010.46 994.203H1012.24L1011.99 996.392ZM1014.88 1007L1011.39 996.392L1011.11 994.203H1012.91L1017.69 1007H1014.88ZM1014.72 1002.24V1004.3H1007.96V1002.24H1014.72Z" fill="#02735B"/>
<path d="M941.228 1041.97L943.776 1031.2H945.2L945.525 1033L942.81 1044H941.28L941.228 1041.97ZM939.918 1031.2L942.027 1041.97L941.852 1044H940.146L937.308 1031.2H939.918ZM947.767 1041.93L949.85 1031.2H952.46L949.63 1044H947.925L947.767 1041.93ZM946 1031.2L948.566 1042.01L948.496 1044H946.967L944.233 1032.99L944.585 1031.2H946ZM956.204 1030.5V1044H953.673V1030.5H956.204ZM955.844 1038.91H955.149C955.155 1038.25 955.243 1037.64 955.413 1037.08C955.583 1036.52 955.826 1036.03 956.143 1035.62C956.459 1035.21 956.837 1034.89 957.276 1034.66C957.722 1034.43 958.214 1034.31 958.753 1034.31C959.222 1034.31 959.646 1034.38 960.027 1034.52C960.414 1034.65 960.745 1034.86 961.021 1035.15C961.302 1035.44 961.519 1035.81 961.671 1036.28C961.823 1036.75 961.899 1037.32 961.899 1037.99V1044H959.351V1037.97C959.351 1037.55 959.289 1037.22 959.166 1036.98C959.049 1036.73 958.876 1036.56 958.647 1036.46C958.425 1036.35 958.149 1036.3 957.821 1036.3C957.458 1036.3 957.147 1036.37 956.89 1036.5C956.638 1036.64 956.436 1036.83 956.283 1037.07C956.131 1037.3 956.02 1037.58 955.949 1037.89C955.879 1038.21 955.844 1038.55 955.844 1038.91ZM966.496 1034.49V1044H963.956V1034.49H966.496ZM963.798 1032.01C963.798 1031.64 963.927 1031.34 964.185 1031.1C964.442 1030.86 964.788 1030.74 965.222 1030.74C965.649 1030.74 965.992 1030.86 966.25 1031.1C966.514 1031.34 966.646 1031.64 966.646 1032.01C966.646 1032.38 966.514 1032.69 966.25 1032.93C965.992 1033.17 965.649 1033.29 965.222 1033.29C964.788 1033.29 964.442 1033.17 964.185 1032.93C963.927 1032.69 963.798 1032.38 963.798 1032.01ZM973.246 1034.49V1036.28H967.709V1034.49H973.246ZM969.08 1032.14H971.611V1041.13C971.611 1041.41 971.646 1041.62 971.717 1041.77C971.793 1041.91 971.904 1042.02 972.051 1042.08C972.197 1042.13 972.382 1042.15 972.604 1042.15C972.763 1042.15 972.903 1042.15 973.026 1042.14C973.155 1042.12 973.264 1042.1 973.352 1042.08L973.36 1043.95C973.144 1044.02 972.909 1044.07 972.657 1044.11C972.405 1044.16 972.127 1044.18 971.822 1044.18C971.266 1044.18 970.779 1044.08 970.363 1043.9C969.953 1043.72 969.637 1043.42 969.414 1043.01C969.191 1042.6 969.08 1042.06 969.08 1041.39V1032.14ZM979.064 1044.18C978.326 1044.18 977.664 1044.06 977.078 1043.82C976.492 1043.58 975.994 1043.25 975.584 1042.83C975.18 1042.41 974.869 1041.92 974.652 1041.36C974.436 1040.8 974.327 1040.2 974.327 1039.57V1039.22C974.327 1038.5 974.43 1037.84 974.635 1037.24C974.84 1036.64 975.133 1036.12 975.514 1035.69C975.9 1035.25 976.369 1034.91 976.92 1034.67C977.471 1034.43 978.092 1034.31 978.783 1034.31C979.457 1034.31 980.055 1034.43 980.576 1034.65C981.098 1034.87 981.534 1035.19 981.886 1035.6C982.243 1036.01 982.513 1036.5 982.694 1037.07C982.876 1037.64 982.967 1038.28 982.967 1038.97V1040.03H975.408V1038.34H980.479V1038.15C980.479 1037.79 980.415 1037.48 980.286 1037.21C980.163 1036.92 979.976 1036.7 979.724 1036.54C979.472 1036.37 979.149 1036.29 978.757 1036.29C978.423 1036.29 978.136 1036.37 977.896 1036.51C977.655 1036.66 977.459 1036.86 977.307 1037.13C977.16 1037.39 977.049 1037.7 976.973 1038.06C976.902 1038.41 976.867 1038.8 976.867 1039.22V1039.57C976.867 1039.95 976.92 1040.3 977.025 1040.62C977.137 1040.95 977.292 1041.23 977.491 1041.46C977.696 1041.69 977.942 1041.88 978.229 1042C978.522 1042.13 978.854 1042.2 979.223 1042.2C979.68 1042.2 980.104 1042.11 980.497 1041.93C980.896 1041.75 981.238 1041.48 981.525 1041.12L982.756 1042.45C982.557 1042.74 982.284 1043.02 981.938 1043.28C981.599 1043.54 981.188 1043.76 980.708 1043.93C980.228 1044.09 979.68 1044.18 979.064 1044.18ZM988.891 1030.5H991.422V1041.82L991.167 1044H988.891V1030.5ZM997.442 1039.15V1039.33C997.442 1040.04 997.366 1040.69 997.214 1041.28C997.067 1041.88 996.839 1042.39 996.528 1042.82C996.218 1043.25 995.831 1043.58 995.368 1043.82C994.911 1044.06 994.372 1044.18 993.751 1044.18C993.171 1044.18 992.667 1044.06 992.239 1043.82C991.817 1043.59 991.463 1043.26 991.176 1042.83C990.889 1042.4 990.657 1041.9 990.481 1041.33C990.306 1040.75 990.174 1040.13 990.086 1039.45V1039.04C990.174 1038.36 990.306 1037.74 990.481 1037.16C990.657 1036.59 990.889 1036.09 991.176 1035.66C991.463 1035.23 991.817 1034.9 992.239 1034.67C992.661 1034.43 993.159 1034.31 993.733 1034.31C994.36 1034.31 994.905 1034.43 995.368 1034.67C995.837 1034.91 996.224 1035.24 996.528 1035.68C996.839 1036.1 997.067 1036.61 997.214 1037.21C997.366 1037.79 997.442 1038.44 997.442 1039.15ZM994.911 1039.33V1039.15C994.911 1038.76 994.882 1038.4 994.823 1038.06C994.771 1037.71 994.677 1037.41 994.542 1037.15C994.407 1036.89 994.223 1036.68 993.988 1036.53C993.76 1036.38 993.464 1036.3 993.101 1036.3C992.755 1036.3 992.462 1036.36 992.222 1036.48C991.981 1036.59 991.782 1036.76 991.624 1036.97C991.472 1037.18 991.357 1037.43 991.281 1037.72C991.205 1038.01 991.158 1038.33 991.141 1038.67V1039.83C991.158 1040.29 991.234 1040.7 991.369 1041.06C991.51 1041.41 991.721 1041.69 992.002 1041.89C992.289 1042.09 992.661 1042.19 993.118 1042.19C993.476 1042.19 993.771 1042.12 994.006 1041.98C994.24 1041.84 994.422 1041.64 994.551 1041.38C994.686 1041.12 994.779 1040.82 994.832 1040.48C994.885 1040.12 994.911 1039.74 994.911 1039.33ZM1004.15 1041.86V1037.62C1004.15 1037.31 1004.1 1037.05 1004 1036.84C1003.9 1036.61 1003.74 1036.44 1003.53 1036.32C1003.33 1036.2 1003.06 1036.13 1002.73 1036.13C1002.45 1036.13 1002.21 1036.18 1002 1036.28C1001.8 1036.38 1001.64 1036.51 1001.53 1036.7C1001.42 1036.87 1001.36 1037.08 1001.36 1037.32H998.831C998.831 1036.92 998.925 1036.53 999.112 1036.17C999.3 1035.81 999.572 1035.49 999.93 1035.21C1000.29 1034.93 1000.71 1034.71 1001.2 1034.55C1001.7 1034.39 1002.26 1034.31 1002.87 1034.31C1003.61 1034.31 1004.27 1034.44 1004.84 1034.68C1005.42 1034.93 1005.87 1035.3 1006.2 1035.79C1006.53 1036.28 1006.7 1036.9 1006.7 1037.64V1041.71C1006.7 1042.23 1006.73 1042.66 1006.79 1042.99C1006.86 1043.32 1006.95 1043.6 1007.08 1043.85V1044H1004.52C1004.39 1043.74 1004.3 1043.42 1004.24 1043.03C1004.18 1042.64 1004.15 1042.25 1004.15 1041.86ZM1004.48 1038.21L1004.5 1039.64H1003.08C1002.75 1039.64 1002.46 1039.68 1002.21 1039.75C1001.97 1039.83 1001.77 1039.94 1001.61 1040.08C1001.45 1040.21 1001.33 1040.37 1001.26 1040.55C1001.19 1040.74 1001.15 1040.94 1001.15 1041.15C1001.15 1041.37 1001.2 1041.57 1001.3 1041.74C1001.4 1041.91 1001.54 1042.05 1001.73 1042.15C1001.92 1042.24 1002.14 1042.29 1002.39 1042.29C1002.77 1042.29 1003.1 1042.21 1003.38 1042.06C1003.67 1041.91 1003.88 1041.72 1004.03 1041.5C1004.19 1041.27 1004.27 1041.06 1004.28 1040.86L1004.95 1041.93C1004.85 1042.17 1004.73 1042.42 1004.56 1042.68C1004.4 1042.94 1004.2 1043.18 1003.96 1043.41C1003.71 1043.63 1003.41 1043.82 1003.07 1043.96C1002.72 1044.11 1002.31 1044.18 1001.84 1044.18C1001.23 1044.18 1000.69 1044.06 1000.19 1043.82C999.707 1043.57 999.32 1043.23 999.033 1042.8C998.752 1042.37 998.611 1041.88 998.611 1041.33C998.611 1040.83 998.705 1040.39 998.893 1040C999.08 1039.61 999.355 1039.29 999.719 1039.03C1000.09 1038.76 1000.55 1038.55 1001.1 1038.42C1001.65 1038.28 1002.29 1038.21 1003.01 1038.21H1004.48ZM1011.32 1030.5V1044H1008.78V1030.5H1011.32ZM1016.08 1030.5V1044H1013.54V1030.5H1016.08Z" fill="#02735B"/>
</g>
<defs>
<clipPath id="clip0_8509_1507">
<rect width="1080" height="1080" fill="white"/>
</clipPath>
</defs>
</svg>
